<?xml version="1.0" encoding="UTF-8"?>
<svg version="1.1" xmlns="http://www.w3.org/2000/svg" width="386" height="144">
<path d="M0 0 C1.98 0.99 1.98 0.99 4 2 C4 11.58912293 -9.38133016 21.77820669 -15.78125 28.5703125 C-19.73316017 32.76808922 -23.52345773 37.08290505 -27.25439453 41.47753906 C-28.7304594 43.21559391 -30.20836838 44.95205423 -31.6875 46.6875 C-32.19982178 47.28868652 -32.71214355 47.88987305 -33.23999023 48.50927734 C-37.2823296 53.22502614 -41.47176965 57.78414842 -45.71411133 62.31958008 C-48.7383702 65.57331665 -51.60000498 68.90240919 -54.375 72.375 C-59.2064614 78.39669368 -64.49211671 83.95437915 -69.78125 89.5703125 C-73.73316017 93.76808922 -77.52345773 98.08290505 -81.25439453 102.47753906 C-87.33565162 109.63817176 -93.48906229 116.69432275 -99.89428711 123.56787109 C-103.36766478 127.29786789 -106.72855184 131.09243691 -110 135 C-112.475 132.525 -112.475 132.525 -115 130 C-114.31292969 129.25234375 -113.62585938 128.5046875 -112.91796875 127.734375 C-112.0077189 126.73966898 -111.09756787 125.74487252 -110.1875 124.75 C-109.73568359 124.25886719 -109.28386719 123.76773438 -108.81835938 123.26171875 C-106.38920231 120.60205773 -104.13548204 117.89796038 -102 115 C-103.6874231 114.97812622 -103.6874231 114.97812622 -105.40893555 114.95581055 C-109.59317387 114.89772246 -113.77687997 114.82049036 -117.96069336 114.73754883 C-119.76952458 114.70434886 -121.57845818 114.67630159 -123.38745117 114.65356445 C-125.99181633 114.61992742 -128.5952476 114.56760805 -131.19921875 114.51171875 C-132.00461594 114.50532883 -132.81001312 114.4989389 -133.63981628 114.49235535 C-138.19930887 114.37366778 -141.34900662 114.02294863 -145 111 C-147.62512291 107.24356425 -147.29563033 103.13305659 -147.29052734 98.73071289 C-147.29724457 97.89935318 -147.30396179 97.06799347 -147.31088257 96.21144104 C-147.32986986 93.46511855 -147.33378695 90.71904028 -147.3359375 87.97265625 C-147.34236429 86.06220906 -147.34909257 84.15176286 -147.35610962 82.24131775 C-147.36808376 78.23743406 -147.37179024 74.23363666 -147.37060547 70.22973633 C-147.37040213 65.10040648 -147.39771913 59.97162976 -147.43214989 54.84243107 C-147.45439035 50.89702311 -147.45844391 46.95174895 -147.45738602 43.00628471 C-147.45974571 41.11524993 -147.46858991 39.22421166 -147.48405075 37.3332386 C-147.50365565 34.68799221 -147.49789496 32.04394755 -147.48583984 29.39868164 C-147.49707886 28.61877869 -147.50831787 27.83887573 -147.51989746 27.03533936 C-147.47677787 23.31030863 -147.1297652 21.20175595 -145.09463501 18.0375824 C-142.06897348 15.09433231 -140.47169787 14.87572854 -136.36669922 14.88647461 C-135.40585419 14.88655014 -134.44500916 14.88662567 -133.45504761 14.88670349 C-132.41542877 14.89186478 -131.37580994 14.89702606 -130.3046875 14.90234375 C-129.24210724 14.9037587 -128.17952698 14.90517365 -127.08474731 14.90663147 C-123.68146991 14.91224166 -120.27825762 14.92479591 -116.875 14.9375 C-114.57161553 14.94251369 -112.26823003 14.94707682 -109.96484375 14.95117188 C-104.30987351 14.9622144 -98.65494141 14.97896248 -93 15 C-92.89042969 14.39671875 -92.78085938 13.7934375 -92.66796875 13.171875 C-90.88445017 4.18178133 -90.88445017 4.18178133 -88 2 C-84.9470363 1.40531108 -81.94640969 1.41594464 -78.84375 1.43359375 C-77.49573303 1.42429588 -77.49573303 1.42429588 -76.1204834 1.41481018 C-74.22079553 1.40770748 -72.32104548 1.41089389 -70.42138672 1.42358398 C-67.5102318 1.43745126 -64.60228951 1.40338649 -61.69140625 1.36523438 C-59.84635338 1.36428321 -58.00129647 1.36614184 -56.15625 1.37109375 C-54.8483551 1.35120644 -54.8483551 1.35120644 -53.51403809 1.33091736 C-51.23448026 1.36614797 -49.21148762 1.4460612 -47 2 C-43.96910556 5.49049122 -43.13192595 9.55936742 -42 14 C-37.89350031 14.27453458 -33.79062436 14.47263127 -29.67700195 14.60424805 C-28.28250042 14.65915222 -26.88862017 14.7339223 -25.49633789 14.82983398 C-16.73211654 15.46534366 -16.73211654 15.46534366 -9.12451172 11.60791016 C-6.86892208 8.83401481 -4.9273384 6.00695527 -3 3 C-1.26782227 1.1472168 -1.26782227 1.1472168 0 0 Z M-86 7 C-86.99 11.29 -87.98 15.58 -89 20 C-90.49893799 19.98428955 -91.99787598 19.9685791 -93.54223633 19.95239258 C-99.09393966 19.89816621 -104.64561949 19.86367631 -110.19750977 19.83520508 C-112.60217218 19.82010184 -115.00680698 19.79961792 -117.41137695 19.77368164 C-120.86416431 19.73736649 -124.31658804 19.720289 -127.76953125 19.70703125 C-128.84773636 19.69154739 -129.92594147 19.67606354 -131.03681946 19.66011047 C-132.53803596 19.65977058 -132.53803596 19.65977058 -134.06958008 19.65942383 C-135.39195427 19.64943108 -135.39195427 19.64943108 -136.74104309 19.63923645 C-139.04552513 19.83977705 -139.04552513 19.83977705 -140.7898407 21.24320984 C-142.32522442 23.4721288 -142.34715057 24.7581884 -142.29296875 27.44921875 C-142.28330078 28.29677734 -142.27363281 29.14433594 -142.26367188 30.01757812 C-142.23853516 30.89865234 -142.21339844 31.77972656 -142.1875 32.6875 C-142.17396484 33.58017578 -142.16042969 34.47285156 -142.14648438 35.39257812 C-142.11114079 37.59566166 -142.06180493 39.79752582 -142 42 C-136.20197352 42.24889164 -130.40711071 42.42941786 -124.60498047 42.54931641 C-122.63567905 42.59933143 -120.66674386 42.66737241 -118.69873047 42.75439453 C-107.08915452 43.76575901 -107.08915452 43.76575901 -96.62353516 39.8371582 C-93.99971178 37.24993299 -93.99971178 37.24993299 -92.00097656 34.46459961 C-88.02860449 29.57183533 -81.12411831 27.15038686 -75 26 C-62.61664687 25.10180197 -52.53225928 26.55218654 -42.66015625 34.5390625 C-40.6824042 36.2794843 -38.78739138 38.06365934 -37 40 C-33.90339292 38.63177112 -31.88711628 37.09738298 -29.58203125 34.62890625 C-28.96779297 33.97212891 -28.35355469 33.31535156 -27.72070312 32.63867188 C-27.09099609 31.95353516 -26.46128906 31.26839844 -25.8125 30.5625 C-24.85053711 29.5405957 -24.85053711 29.5405957 -23.86914062 28.49804688 C-20.23463711 24.69025586 -20.23463711 24.69025586 -18 20 C-31.86 19.505 -31.86 19.505 -46 19 C-46.99 15.37 -47.98 11.74 -49 8 C-50.16748999 6.60476145 -50.16748999 6.60476145 -53.41821289 6.88647461 C-54.93636988 6.88663372 -56.45453229 6.89232774 -57.97265625 6.90234375 C-59.16912025 6.90446617 -59.16912025 6.90446617 -60.38975525 6.90663147 C-62.94737435 6.91224684 -65.50490718 6.92480188 -68.0625 6.9375 C-69.79231645 6.94251302 -71.52213426 6.94707627 -73.25195312 6.95117188 C-77.50133553 6.96222125 -81.75065312 6.97949614 -86 7 Z M-94.25 42.3125 C-100.6296765 50.13499163 -102.76878173 59.10549442 -102 69 C-100.22161642 78.87153599 -95.28800435 86.55475502 -87.61328125 92.90625 C-85.87193806 94.19303015 -85.87193806 94.19303015 -83 95 C-82.34 93.35 -81.68 91.7 -81 90 C-81.886875 89.46375 -82.77375 88.9275 -83.6875 88.375 C-90.85274079 83.50263626 -93.89250745 77.26091999 -96 69 C-97.23718419 60.73960861 -95.1287481 53.59411113 -90.45703125 46.734375 C-85.30177103 40.36403056 -78.99856069 36.65224991 -70.80859375 35.76171875 C-62.66429484 35.50679012 -54.89438877 37.37813675 -48.4375 42.5625 C-46 45 -46 45 -44 48 C-42.68 47.34 -41.36 46.68 -40 46 C-41.39503161 40.72988058 -44.65236682 37.98592165 -49 35 C-65.17619217 26.39448362 -81.71849237 28.80980052 -94.25 42.3125 Z M-83.24609375 49.02734375 C-87.16686786 53.43712309 -88.72956437 58.7978813 -89.4375 64.5625 C-88.884788 68.90523718 -87.86111657 73.02164989 -86 77 C-85.34 77.33 -84.68 77.66 -84 78 C-84.15597656 77.38253906 -84.31195313 76.76507813 -84.47265625 76.12890625 C-86.44272651 67.55714361 -86.45921837 60.69999987 -82.1875 52.86328125 C-80.36143181 49.99803609 -78.27210492 47.52456103 -76 45 C-79.2189291 45 -80.90332029 46.95846447 -83.24609375 49.02734375 Z M-142 87 C-142.11613204 90.10385211 -142.18722029 93.20714662 -142.25 96.3125 C-142.28351563 97.19357422 -142.31703125 98.07464844 -142.3515625 98.98242188 C-142.51452884 103.81694984 -142.51452884 103.81694984 -140.56762695 108.07177734 C-136.62155507 109.49832154 -132.8371686 109.50824646 -128.66796875 109.5390625 C-127.30301018 109.55759781 -127.30301018 109.55759781 -125.91047668 109.57650757 C-123.98652567 109.59605889 -122.06247484 109.60730329 -120.13842773 109.61083984 C-117.20710604 109.62490592 -114.28007172 109.69222162 -111.34960938 109.76171875 C-109.47658138 109.77412072 -107.60352906 109.7833385 -105.73046875 109.7890625 C-104.86044724 109.81578033 -103.99042572 109.84249817 -103.09403992 109.87002563 C-98.20065603 109.81588731 -95.55404802 109.12703789 -91.9543457 105.70068359 C-89.6621002 103.21733199 -88.59442245 101.33390838 -88 98 C-88.69867188 97.37351562 -89.39734375 96.74703125 -90.1171875 96.1015625 C-91.48230469 94.87566406 -91.48230469 94.87566406 -92.875 93.625 C-94.23238281 92.40683594 -94.23238281 92.40683594 -95.6171875 91.1640625 C-97.10896183 89.80923795 -98.57505435 88.42494565 -100 87 C-101.89796738 86.70896291 -101.89796738 86.70896291 -104.08251953 86.77294922 C-104.92324005 86.77310028 -105.76396057 86.77325134 -106.63015747 86.77340698 C-107.99272171 86.78889084 -107.99272171 86.78889084 -109.3828125 86.8046875 C-110.31221649 86.8075174 -111.24162048 86.81034729 -112.19918823 86.81326294 C-115.1745885 86.82447931 -118.14969035 86.8495864 -121.125 86.875 C-123.13931858 86.88502792 -125.15364186 86.8941541 -127.16796875 86.90234375 C-132.11209456 86.92442339 -137.05599665 86.95896307 -142 87 Z " fill="#08489E" transform="translate(154,5)"/>
<path d="M0 0 C14.19 0.33 28.38 0.66 43 1 C41.35 5.95 39.7 10.9 38 16 C37.07098629 27.4578358 39.05586218 34.22344873 42 46 C28.14 46 14.28 46 0 46 C0 30.82 0 15.64 0 0 Z " fill="#01BE63" transform="translate(11,46)"/>
<path d="M0 0 C3 1 3 1 4 2 C4.33 1.34 4.66 0.68 5 0 C8.40312738 1.05875074 11.01353231 2.00902154 14 4 C14 4.66 14 5.32 14 6 C14.9590625 6.4021875 14.9590625 6.4021875 15.9375 6.8125 C18 8 18 8 19 11 C20.65 11 22.3 11 24 11 C24.495 12.485 24.495 12.485 25 14 C24.34 14 23.68 14 23 14 C22.979375 14.825 22.95875 15.65 22.9375 16.5 C21.82412643 20.65659467 20.18629999 22.42882319 17.30078125 25.5234375 C14.39901306 28.64690275 11.64086315 31.88135431 8.875 35.125 C8.37250732 35.71087891 7.87001465 36.29675781 7.35229492 36.90039062 C6.61716675 37.75793945 6.61716675 37.75793945 5.8671875 38.6328125 C5.38628662 39.19049316 4.90538574 39.74817383 4.40991211 40.32275391 C3.46645075 41.44510534 2.54774928 42.58872194 1.65454102 43.75146484 C0.50968971 45.22755428 -0.73960992 46.62125368 -2 48 C-5.8125 48.375 -5.8125 48.375 -9 48 C-8.67 49.32 -8.34 50.64 -8 52 C-9.32 52.99 -10.64 53.98 -12 55 C-12.99 51.535 -12.99 51.535 -14 48 C-15.485 48.495 -15.485 48.495 -17 49 C-18.485 49.495 -18.485 49.495 -20 50 C-21.04449911 46.86650268 -20.93423645 46.01031744 -20 43 C-19.34 43 -18.68 43 -18 43 C-18.515625 41.80375 -19.03125 40.6075 -19.5625 39.375 C-22.15216632 31.67929347 -21.52729 22.32491974 -18 15 C-16.0625 12.6875 -16.0625 12.6875 -14 11 C-13.01 11 -12.02 11 -11 11 C-10.67 10.01 -10.34 9.02 -10 8 C-8.3523962 7.28752268 -6.68236471 6.62599617 -5 6 C-1.97300062 4.06608373 -1.16254658 3.48763975 0 0 Z " fill="#0149AC" transform="translate(90,43)"/>
<path d="M0 0 C3.67125 -0.061875 7.3425 -0.12375 11.125 -0.1875 C12.84420654 -0.22846802 12.84420654 -0.22846802 14.59814453 -0.27026367 C21.14945389 -0.32368045 25.81426968 0.13284271 30.875 4.6875 C32.53862628 8.10717623 32.66969442 11.32020539 32 15 C30.87840655 17.3014515 29.61478297 18.98152129 28 21 C28.639375 21.61875 29.27875 22.2375 29.9375 22.875 C33.30750733 26.34712876 33.39682423 28.99119251 33.3515625 33.67578125 C32.74999769 37.65279302 30.91523432 39.28353165 28 42 C24.73043602 44.06300185 22.19166286 44.23608152 18.359375 44.1953125 C17.39483398 44.19031738 16.43029297 44.18532227 15.43652344 44.18017578 C14.2199707 44.16196777 13.00341797 44.14375977 11.75 44.125 C5.93375 44.063125 5.93375 44.063125 0 44 C0 29.48 0 14.96 0 0 Z M10 8 C10 10.97 10 13.94 10 17 C11.8871875 17.061875 11.8871875 17.061875 13.8125 17.125 C14.52019531 17.14820313 15.22789062 17.17140625 15.95703125 17.1953125 C18.31359719 17.13254462 18.31359719 17.13254462 21 15 C21.25030977 12.41619823 21.25030977 12.41619823 21 10 C17.36576791 7.67409146 14.22911669 7.83734167 10 8 Z M10 25 C10 28.63 10 32.26 10 36 C15.43346178 36.36638064 15.43346178 36.36638064 20.5 34.8125 C22.18622047 33.05352885 22.18622047 33.05352885 22.5625 30.5 C22.22035628 27.83546292 22.22035628 27.83546292 19.9375 26.1875 C16.4483377 24.77698758 13.7303242 24.78056916 10 25 Z " fill="#0549A8" transform="translate(244,33)"/>
<path d="M0 0 C1.65322266 0.01740234 1.65322266 0.01740234 3.33984375 0.03515625 C4.44457031 0.04417969 5.54929688 0.05320312 6.6875 0.0625 C7.54214844 0.07410156 8.39679688 0.08570312 9.27734375 0.09765625 C11.42023364 6.02178214 13.55571787 11.94853875 15.68603516 17.87719727 C16.4118634 19.89441523 17.13939491 21.91102116 17.86865234 23.92700195 C18.91560373 26.82214304 19.95644222 29.71941831 20.99609375 32.6171875 C21.32420044 33.52040237 21.65230713 34.42361725 21.99035645 35.35420227 C22.29066772 36.19484726 22.590979 37.03549225 22.90039062 37.90161133 C23.30010071 39.01080681 23.30010071 39.01080681 23.70788574 40.14241028 C24.27734375 42.09765625 24.27734375 42.09765625 24.27734375 45.09765625 C20.64734375 45.09765625 17.01734375 45.09765625 13.27734375 45.09765625 C11.79234375 40.64265625 11.79234375 40.64265625 10.27734375 36.09765625 C5.32734375 35.76765625 0.37734375 35.43765625 -4.72265625 35.09765625 C-5.03203125 36.56203125 -5.34140625 38.02640625 -5.66015625 39.53515625 C-6.59765625 43.97265625 -6.59765625 43.97265625 -7.72265625 45.09765625 C-9.57553127 45.16992127 -11.43099503 45.18146845 -13.28515625 45.16015625 C-14.29707031 45.15113281 -15.30898437 45.14210937 -16.3515625 45.1328125 C-17.13402344 45.12121094 -17.91648438 45.10960937 -18.72265625 45.09765625 C-16.32554269 36.56175521 -13.38209268 28.22511612 -10.42431641 19.87182617 C-9.58886623 17.51031003 -8.75909612 15.14684703 -7.9296875 12.78320312 C-7.40007684 11.28243303 -6.87014112 9.78177759 -6.33984375 8.28125 C-6.09193085 7.57407333 -5.84401794 6.86689667 -5.58859253 6.13829041 C-3.45041864 0.12375964 -3.45041864 0.12375964 0 0 Z M2.27734375 11.09765625 C1.60726035 13.22158131 0.94137578 15.34683149 0.27734375 17.47265625 C-0.09390625 18.65601563 -0.46515625 19.839375 -0.84765625 21.05859375 C-1.81488231 23.89089064 -1.81488231 23.89089064 -1.72265625 26.09765625 C1.57734375 26.09765625 4.87734375 26.09765625 8.27734375 26.09765625 C7.66188589 23.78222011 7.03556339 21.47073429 6.40234375 19.16015625 C6.22832031 18.50080078 6.05429688 17.84144531 5.875 17.16210938 C5.40258138 15.45615325 4.84519347 13.77426364 4.27734375 12.09765625 C3.61734375 11.76765625 2.95734375 11.43765625 2.27734375 11.09765625 Z " fill="#044AA9" transform="translate(159.72265625,31.90234375)"/>
<path d="M0 0 C4.46280552 3.22313732 5.99954455 7.74350867 7 13 C7.24930328 19.37641081 6.23301907 24.04132052 2 29 C-2.53134921 32.98209476 -6.6678101 33.2957077 -12.5 33.2109375 C-17.48033673 32.79072159 -20.5767542 30.69352156 -23.8125 27.0625 C-27.59598048 21.76562733 -27.54858424 16.35769952 -27 10 C-25.83471637 5.46738942 -23.72827127 1.87609498 -20 -1 C-12.82546552 -4.18868199 -6.87922414 -3.63430709 0 0 Z M-14.8125 7 C-17.05160603 10.77112594 -17.46718691 14.81840399 -16.5625 19.04296875 C-15.84623826 21.21361022 -15.84623826 21.21361022 -14 24 C-10.68248515 25.32700594 -9.40581276 25.13527092 -6 24 C-4.01973655 21.0329163 -3.7036119 18.52313533 -3.6875 15 C-3.67074219 14.154375 -3.65398437 13.30875 -3.63671875 12.4375 C-4.07641986 9.48724739 -4.93136949 8.12676532 -7 6 C-10.09548485 5.54857513 -12.04520554 5.47321685 -14.8125 7 Z " fill="#0449A7" transform="translate(309,45)"/>
<path d="M0 0 C2.31 0 4.62 0 7 0 C7 2.31 7 4.62 7 7 C10.3 7 13.6 7 17 7 C17 9.64 17 12.28 17 15 C13.7 15 10.4 15 7 15 C7.33 20.61 7.66 26.22 8 32 C12.80388386 33.13074409 12.80388386 33.13074409 17 33 C17 35.64 17 38.28 17 41 C12.38187125 42.53937625 7.82274505 42.52175897 3 42 C-0.61691275 39.90219061 -1.68291409 38.95125774 -3 35 C-3.08106686 33.44578271 -3.10756898 31.88832973 -3.09765625 30.33203125 C-3.09443359 29.43935547 -3.09121094 28.54667969 -3.08789062 27.62695312 C-3.07951172 26.69818359 -3.07113281 25.76941406 -3.0625 24.8125 C-3.05798828 23.87212891 -3.05347656 22.93175781 -3.04882812 21.96289062 C-3.03704626 19.64186288 -3.02059558 17.32096356 -3 15 C-4.32 15 -5.64 15 -7 15 C-7 13.02 -7 11.04 -7 9 C-6.401875 8.814375 -5.80375 8.62875 -5.1875 8.4375 C-1.90018201 6.27726247 -1.35145313 3.64892345 0 0 Z " fill="#0649A4" transform="translate(220,36)"/>
<path d="M0 0 C2.31 0 4.62 0 7 0 C7 2.31 7 4.62 7 7 C10.3 7 13.6 7 17 7 C17 9.64 17 12.28 17 15 C13.7 15 10.4 15 7 15 C7.33 20.94 7.66 26.88 8 33 C10.97 33 13.94 33 17 33 C17 35.64 17 38.28 17 41 C11.75157984 42.74947339 6.16229145 42.85590703 1 40.8125 C-1.89260254 38.19107895 -2.87543188 35.73254142 -3.15722656 31.81323242 C-3.19666257 29.26834603 -3.17433763 26.73218311 -3.125 24.1875 C-3.11597656 23.30384766 -3.10695313 22.42019531 -3.09765625 21.50976562 C-3.07419637 19.33972641 -3.03832865 17.16982753 -3 15 C-4.32 15 -5.64 15 -7 15 C-7.3125 12.75 -7.3125 12.75 -7 10 C-5.34614767 8.65080468 -3.678298 7.31866272 -2 6 C-0.65227097 2.87866256 -0.65227097 2.87866256 0 0 Z " fill="#0349AC" transform="translate(326,36)"/>
<path d="M0 0 C0.33 0.33 0.66 0.66 1 1 C0.91062197 2.52519276 0.75462854 4.04681929 0.5625 5.5625 C0.46066406 6.38878906 0.35882813 7.21507812 0.25390625 8.06640625 C0.17011719 8.70449219 0.08632812 9.34257813 0 10 C-0.93972656 10.14695312 -0.93972656 10.14695312 -1.8984375 10.296875 C-2.71570313 10.44640625 -3.53296875 10.5959375 -4.375 10.75 C-5.59316406 10.95882812 -5.59316406 10.95882812 -6.8359375 11.171875 C-9.11954653 11.79721053 -9.11954653 11.79721053 -10.109375 13.76757812 C-11.06307495 16.15810234 -11.31011936 17.98294427 -11.4140625 20.546875 C-11.47207031 21.81337891 -11.47207031 21.81337891 -11.53125 23.10546875 C-11.57765625 24.41451172 -11.57765625 24.41451172 -11.625 25.75 C-11.68300781 27.08224609 -11.68300781 27.08224609 -11.7421875 28.44140625 C-11.83620322 30.62727167 -11.91918002 32.81360692 -12 35 C-15.3 35 -18.6 35 -22 35 C-22 23.78 -22 12.56 -22 1 C-19.36 1 -16.72 1 -14 1 C-13.34 1.99 -12.68 2.98 -12 4 C-11.401875 3.525625 -10.80375 3.05125 -10.1875 2.5625 C-6.79857119 0.14183656 -4.07214699 -0.21432353 0 0 Z " fill="#0249AC" transform="translate(210,42)"/>
<path d="M0 0 C1.66666667 0.33333333 3.33333333 0.66666667 5 1 C5.33 0.67 5.66 0.34 6 0 C8.4375 -0.1875 8.4375 -0.1875 11 0 C11.66 0.66 12.32 1.32 13 2 C13.66 1.34 14.32 0.68 15 0 C17.5 -0.3125 17.5 -0.3125 20 0 C22.26316991 3.39475487 22.17045826 4.06801512 21.6875 7.9375 C21.58824219 8.79214844 21.48898438 9.64679688 21.38671875 10.52734375 C21.04159973 12.73401382 20.58470623 14.84608218 20 17 C18.02 17 16.04 17 14 17 C14.66 13.37 15.32 9.74 16 6 C15.34 6 14.68 6 14 6 C13.01 9.63 12.02 13.26 11 17 C9.02 17 7.04 17 5 17 C5.66 13.04 6.32 9.08 7 5 C4.72573954 5.84429676 4.72573954 5.84429676 4.1484375 8.50390625 C3.89320313 9.51324219 3.63796875 10.52257812 3.375 11.5625 C3.11460937 12.57441406 2.85421875 13.58632812 2.5859375 14.62890625 C2.39257812 15.41136719 2.19921875 16.19382812 2 17 C0.02 17 -1.96 17 -4 17 C-3.52555245 14.35323911 -3.04568672 11.70766636 -2.5625 9.0625 C-2.42779297 8.30775391 -2.29308594 7.55300781 -2.15429688 6.77539062 C-1.11328125 1.11328125 -1.11328125 1.11328125 0 0 Z " fill="#0747A1" transform="translate(156,96)"/>
<path d="M0 0 C1.08667969 0.01804687 2.17335937 0.03609375 3.29296875 0.0546875 C4.54013672 0.08949219 4.54013672 0.08949219 5.8125 0.125 C5.4825 1.445 5.1525 2.765 4.8125 4.125 C4.1525 4.125 3.4925 4.125 2.8125 4.125 C2.874375 4.888125 2.93625 5.65125 3 6.4375 C2.8125 9.125 2.8125 9.125 1.5 10.875 C-0.1875 12.125 -0.1875 12.125 -3.1875 13.125 C-1.8675 13.455 -0.5475 13.785 0.8125 14.125 C2.1325 20.485 2.1325 20.485 0.875 23 C-2.33106312 24.7487617 -5.58145504 25.27232868 -9.1875 25.125 C-12.1875 23.6875 -12.1875 23.6875 -14.1875 22.125 C-13.4375 17.375 -13.4375 17.375 -11.1875 15.125 C-10.5084297 11.88055302 -10.14237684 8.6737684 -9.8125 5.375 C-9.60625 4.3025 -9.4 3.23 -9.1875 2.125 C-5.66070901 -0.22619399 -4.15870515 -0.08943452 0 0 Z M-4.1875 4.125 C-4.5175 5.445 -4.8475 6.765 -5.1875 8.125 C-4.1975 7.795 -3.2075 7.465 -2.1875 7.125 C-2.1875 6.135 -2.1875 5.145 -2.1875 4.125 C-2.8475 4.125 -3.5075 4.125 -4.1875 4.125 Z M-9.1875 18.125 C-8.8575 19.115 -8.5275 20.105 -8.1875 21.125 C-6.5375 20.795 -4.8875 20.465 -3.1875 20.125 C-3.1875 19.465 -3.1875 18.805 -3.1875 18.125 C-5.1675 18.125 -7.1475 18.125 -9.1875 18.125 Z " fill="#0B4696" transform="translate(208.1875,95.875)"/>
<path d="M0 0 C1.9375 1.5 1.9375 1.5 3 3 C2.01 4.485 2.01 4.485 1 6 C-1.33333333 6 -3.66666667 6 -6 6 C-8.01951062 6.93597315 -8.01951062 6.93597315 -9 9 C-9.73041853 12.61023099 -9.73041853 12.61023099 -10 16 C-7.525 16.99 -7.525 16.99 -5 18 C-5 17.01 -5 16.02 -5 15 C-5.99 14.67 -6.98 14.34 -8 14 C-7.67 12.68 -7.34 11.36 -7 10 C-4.03 10 -1.06 10 2 10 C1.77192509 11.79458945 1.51677697 13.58575449 1.25 15.375 C1.11078125 16.37273437 0.9715625 17.37046875 0.828125 18.3984375 C0 21 0 21 -1.86328125 22.32421875 C-5.12736534 23.35655247 -7.5984675 23.41773206 -11 23 C-13.9375 21.0625 -13.9375 21.0625 -16 18 C-16.82536515 13.65307688 -16.52378122 10.14733028 -14.6875 6.125 C-10.33326583 0.6418903 -7.18508742 -0.51322053 0 0 Z " fill="#07469E" transform="translate(254,91)"/>
<path d="M0 0 C2.79103419 -0.29188912 5.35673507 -0.39597319 8.1484375 -0.36328125 C8.95737457 -0.36377975 9.76631165 -0.36427826 10.59976196 -0.36479187 C12.31295219 -0.36244922 14.02614571 -0.35270942 15.73925781 -0.33618164 C18.35773658 -0.31265511 20.97519288 -0.31561078 23.59375 -0.32226562 C25.25781856 -0.31668661 26.92188283 -0.30957533 28.5859375 -0.30078125 C29.36834808 -0.30169266 30.15075867 -0.30260406 30.95687866 -0.30354309 C34.77251341 -0.25399245 37.76559922 -0.15287458 41 2 C37.82709287 3.58645357 34.41174616 3.12078213 30.9296875 3.09765625 C30.13345978 3.0962413 29.33723206 3.09482635 28.51687622 3.09336853 C25.9695462 3.08776345 23.42230353 3.07521014 20.875 3.0625 C19.14974085 3.05748565 17.42448033 3.05292263 15.69921875 3.04882812 C11.46611209 3.03779237 7.23307086 3.02052436 3 3 C3 4.65 3 6.3 3 8 C2.34 8.33 1.68 8.66 1 9 C0.34444881 11.52733235 0.34444881 11.52733235 0 14 C-0.66 14 -1.32 14 -2 14 C-2.33 14.66 -2.66 15.32 -3 16 C-26.265 15.505 -26.265 15.505 -50 15 C-50 14.34 -50 13.68 -50 13 C-34.82 13 -19.64 13 -4 13 C-3.34 9.7 -2.68 6.4 -2 3 C-1.34 2.01 -0.68 1.02 0 0 Z " fill="#0349A9" transform="translate(65,8)"/>
<path d="M0 0 C1.98 0 3.96 0 6 0 C6.33923576 2.35344806 6.67150534 4.7075484 7 7.0625 C7.09539062 7.71927734 7.19078125 8.37605469 7.2890625 9.05273438 C7.88887674 13.40138763 8.09127093 17.61329071 8 22 C6.35 22 4.7 22 3 22 C3 20.35 3 18.7 3 17 C0.05908413 17.18415432 0.05908413 17.18415432 -3 18 C-4.43637698 19.95163118 -4.43637698 19.95163118 -5 22 C-6.98 22 -8.96 22 -11 22 C-9.48968084 16.73877829 -7.09625809 12.32767414 -4.375 7.625 C-3.95476562 6.88894531 -3.53453125 6.15289062 -3.1015625 5.39453125 C-2.07247236 3.5936235 -1.03689244 1.79642682 0 0 Z M1 8 C0.34 9.65 -0.32 11.3 -1 13 C-0.01 13 0.98 13 2 13 C2 11.35 2 9.7 2 8 C1.67 8 1.34 8 1 8 Z " fill="#0C469B" transform="translate(116,91)"/>
<path d="M0 0 C14.19 0.33 28.38 0.66 43 1 C41.68 4.63 40.36 8.26 39 12 C38.67 12 38.34 12 38 12 C37.505 8.535 37.505 8.535 37 5 C37.99 5 38.98 5 40 5 C40 4.34 40 3.68 40 3 C27.46 3 14.92 3 2 3 C2 16.86 2 30.72 2 45 C14.54 45 27.08 45 40 45 C40 43.35 40 41.7 40 40 C42 43.75 42 43.75 42 46 C28.14 46 14.28 46 0 46 C0 30.82 0 15.64 0 0 Z " fill="#1FAC7E" transform="translate(11,46)"/>
<path d="M0 0 C1.25541557 3.76624671 0.37061958 5.37188934 -1 9 C-1.93294388 9.01213028 -1.93294388 9.01213028 -2.88473511 9.02450562 C-9.34085016 9.11036507 -15.79665154 9.20985976 -22.25244141 9.31738281 C-24.66384628 9.35573647 -27.07530962 9.3905779 -29.48681641 9.421875 C-32.94715313 9.46738703 -36.40708508 9.52540404 -39.8671875 9.5859375 C-41.49223709 9.60326431 -41.49223709 9.60326431 -43.15011597 9.62094116 C-44.1510025 9.64081085 -45.15188904 9.66068054 -46.18310547 9.68115234 C-47.06690887 9.69447601 -47.95071228 9.70779968 -48.86129761 9.7215271 C-51.2132825 9.80669004 -51.2132825 9.80669004 -53 12 C-53.36831081 13.93257855 -53.36831081 13.93257855 -53.4140625 16.1328125 C-53.45273437 16.93847656 -53.49140625 17.74414062 -53.53125 18.57421875 C-53.5621875 19.41597656 -53.593125 20.25773437 -53.625 21.125 C-53.66367187 21.97449219 -53.70234375 22.82398437 -53.7421875 23.69921875 C-53.83656494 25.79911684 -53.91937586 27.89952891 -54 30 C-54.33 30 -54.66 30 -55 30 C-55.33 24.06 -55.66 18.12 -56 12 C-56.99 12.66 -57.98 13.32 -59 14 C-58.72256587 10.76326846 -58.0219738 9.03118352 -56.13598633 6.35473633 C-51.53684348 2.90135114 -47.61377652 3.3705566 -42.01171875 3.51171875 C-40.95338333 3.51879349 -39.89504791 3.52586823 -38.80464172 3.53315735 C-35.43153563 3.56109781 -32.06010254 3.62383879 -28.6875 3.6875 C-26.39781047 3.71258318 -24.10809486 3.73539631 -21.81835938 3.75585938 C-16.21167085 3.81092319 -10.60595496 3.8945467 -5 4 C-5 4.33 -5 4.66 -5 5 C-20.18 5 -35.36 5 -51 5 C-51 5.66 -51 6.32 -51 7 C-50.01 6.67 -49.02 6.34 -48 6 C-46.55700654 5.94578044 -45.1113298 5.95079577 -43.66796875 5.99414062 C-42.79696533 6.0174646 -41.92596191 6.04078857 -41.02856445 6.06481934 C-40.09101318 6.09499146 -39.15346191 6.12516357 -38.1875 6.15625 C-37.22223389 6.18223267 -36.25696777 6.20821533 -35.26245117 6.23498535 C-31.12817738 6.34643797 -26.99430141 6.47046476 -22.86035156 6.59326172 C-19.8445043 6.68106967 -16.82853164 6.76256561 -13.8125 6.84375 C-12.87494873 6.87392212 -11.93739746 6.90409424 -10.97143555 6.93518066 C-10.10043213 6.95850464 -9.22942871 6.98182861 -8.33203125 7.00585938 C-7.18311401 7.04036194 -7.18311401 7.04036194 -6.01098633 7.07556152 C-3.79151461 7.08627362 -3.79151461 7.08627362 -1 6 C-1.020625 5.195625 -1.04125 4.39125 -1.0625 3.5625 C-1 1 -1 1 0 0 Z " fill="#104691" transform="translate(66,16)"/>
<path d="M0 0 C0.66 0 1.32 0 2 0 C3.32 0 4.64 0 6 0 C5.54775239 5.91492272 4.8417395 11.35199888 3 17 C1.39773045 17.22245393 -0.20696767 17.42746669 -1.8125 17.625 C-3.15248047 17.79902344 -3.15248047 17.79902344 -4.51953125 17.9765625 C-7 18 -7 18 -10 16 C-10.82609756 11.42406743 -10.5238644 7.16678889 -8.625 2.9375 C-5.94201799 -0.26144009 -4.00239384 -0.10005985 0 0 Z M-3 5 C-5.1519437 8.22791555 -5.20086443 9.28400809 -5 13 C-4.01 13 -3.02 13 -2 13 C-0.57055055 10.64561267 0.08661261 9.51967567 -0.375 6.75 C-0.58125 6.1725 -0.7875 5.595 -1 5 C-1.66 5 -2.32 5 -3 5 Z " fill="#0A4599" transform="translate(331,96)"/>
<path d="M0 0 C0.66 0 1.32 0 2 0 C3.32 0 4.64 0 6 0 C5.48517081 5.852795 4.54642808 11.3297637 3 17 C1.39773045 17.22245393 -0.20696767 17.42746669 -1.8125 17.625 C-3.15248047 17.79902344 -3.15248047 17.79902344 -4.51953125 17.9765625 C-7 18 -7 18 -10 16 C-10.82609756 11.42406743 -10.5238644 7.16678889 -8.625 2.9375 C-5.94201799 -0.26144009 -4.00239384 -0.10005985 0 0 Z M-3 5 C-5.1519437 8.22791555 -5.20086443 9.28400809 -5 13 C-4.01 13 -3.02 13 -2 13 C-0.57055055 10.64561267 0.08661261 9.51967567 -0.375 6.75 C-0.58125 6.1725 -0.7875 5.595 -1 5 C-1.66 5 -2.32 5 -3 5 Z " fill="#09469B" transform="translate(190,96)"/>
<path d="M0 0 C5.78401872 -0.12350083 11.5672721 -0.21429191 17.35229492 -0.2746582 C19.32052984 -0.29981914 21.28867117 -0.33395164 23.2565918 -0.37719727 C26.08405619 -0.4377807 28.91028682 -0.46619307 31.73828125 -0.48828125 C32.61962234 -0.51408768 33.50096344 -0.5398941 34.40901184 -0.56648254 C36.70667664 -0.56753994 38.75943228 -0.50764737 41 0 C44.29450377 3.52914917 44.62900901 7.20153152 46 12 C60.85 12.495 60.85 12.495 76 13 C76 13.33 76 13.66 76 14 C71.6217488 14.02469081 67.24353433 14.04285557 62.86523438 14.05493164 C61.37531834 14.05996514 59.88540726 14.06679242 58.39550781 14.07543945 C56.25584696 14.08754805 54.11625132 14.09323807 51.9765625 14.09765625 C50.68830566 14.10289307 49.40004883 14.10812988 48.07275391 14.11352539 C45 14 45 14 43 13 C43 13.99 43 14.98 43 16 C56.365 16.495 56.365 16.495 70 17 C70 17.33 70 17.66 70 18 C60.76 18 51.52 18 42 18 C39 10 39 10 38 6 C26.12 5.67 14.24 5.34 2 5 C2 4.67 2 4.34 2 4 C13.88 3.67 25.76 3.34 38 3 C34.83538385 1.41769192 31.40920633 1.75842187 27.9296875 1.68359375 C27.13345978 1.66281265 26.33723206 1.64203156 25.51687622 1.62062073 C22.96967315 1.55515851 20.42236575 1.49625585 17.875 1.4375 C16.14972873 1.3943116 14.42446807 1.35069721 12.69921875 1.30664062 C8.46625315 1.19948055 4.23318247 1.09820377 0 1 C0 0.67 0 0.34 0 0 Z " fill="#11468C" transform="translate(66,7)"/>
<path d="M0 0 C2.9375 0.5625 2.9375 0.5625 5.3125 2.125 C7.55518434 5.4890265 7.425513 7.58867986 6.9375 11.5625 C5.66583274 14.42375133 4.61257529 16.05037391 2.125 17.9375 C-0.96766905 18.82111973 -2.99495203 18.47623769 -6.0625 17.5625 C-8 16 -8 16 -9.0625 13.5625 C-9.0625 8.64440692 -8.7797036 6.54609351 -5.875 2.5625 C-3.0625 0.5625 -3.0625 0.5625 0 0 Z M-1.0625 5.5625 C-3.41223818 7.46005144 -3.41223818 7.46005144 -3.1875 10.6875 C-3.14625 11.63625 -3.105 12.585 -3.0625 13.5625 C-2.0725 13.5625 -1.0825 13.5625 -0.0625 13.5625 C0.5975 11.2525 1.2575 8.9425 1.9375 6.5625 C0.9475 6.2325 -0.0425 5.9025 -1.0625 5.5625 Z " fill="#0746A5" transform="translate(359.0625,95.4375)"/>
<path d="M0 0 C0.99 0.66 1.98 1.32 3 2 C3.4375 4.9375 3.4375 4.9375 3 8 C0.36771463 10.82726947 -2.2404812 11.47784461 -6 12 C-3.69 12 -1.38 12 1 12 C1 13.65 1 15.3 1 17 C-6.90252327 18.40151588 -6.90252327 18.40151588 -10.5625 17.0625 C-12.78696501 13.87087628 -12.60660032 10.69737335 -12 7 C-9.34646515 1.18749509 -6.33895492 -0.52824624 0 0 Z M-4 4 C-4.99 5.485 -4.99 5.485 -6 7 C-4.68 6.67 -3.36 6.34 -2 6 C-2 5.34 -2 4.68 -2 4 C-2.66 4 -3.32 4 -4 4 Z " fill="#08459B" transform="translate(304,96)"/>
<path d="M0 0 C1.66666667 0.33333333 3.33333333 0.66666667 5 1 C5.33 0.67 5.66 0.34 6 0 C8.4375 -0.1875 8.4375 -0.1875 11 0 C13 2 13 2 13.25 5.125 C12.97678029 9.35990544 12.14425432 12.92359399 11 17 C9.35 17 7.7 17 6 17 C6.14095064 15.3745692 6.28792087 13.74965949 6.4375 12.125 C6.51871094 11.22007813 6.59992188 10.31515625 6.68359375 9.3828125 C7 7 7 7 8 5 C7.01 5.33 6.02 5.66 5 6 C3.96961044 8.56042066 3.96961044 8.56042066 3.3125 11.5625 C3.06113281 12.57441406 2.80976563 13.58632812 2.55078125 14.62890625 C2.36902344 15.41136719 2.18726563 16.19382812 2 17 C0.02 17 -1.96 17 -4 17 C-3.52555245 14.35323911 -3.04568672 11.70766636 -2.5625 9.0625 C-2.42779297 8.30775391 -2.29308594 7.55300781 -2.15429688 6.77539062 C-1.11328125 1.11328125 -1.11328125 1.11328125 0 0 Z " fill="#09479C" transform="translate(277,96)"/>
<path d="M0 0 C1 1 1 1 1.3125 3.875 C1 7 1 7 -0.6875 8.8125 C-3.1455731 10.07475375 -5.27200523 10.62111184 -8 11 C-5.69 11 -3.38 11 -1 11 C-1 12.65 -1 14.3 -1 16 C-9.01626233 17.57584644 -9.01626233 17.57584644 -12.5625 15.5 C-14.55388789 12.03671671 -14.54415849 9.94514908 -14 6 C-10.26024373 -0.96368409 -7.54113018 -1.39650559 0 0 Z M-6 3 C-6.99 4.485 -6.99 4.485 -8 6 C-6.68 5.67 -5.36 5.34 -4 5 C-4 4.34 -4 3.68 -4 3 C-4.66 3 -5.32 3 -6 3 Z " fill="#0B459D" transform="translate(227,97)"/>
<path d="M0 0 C1.9375 1.125 1.9375 1.125 3 3 C2.9375 6.0625 2.9375 6.0625 2 9 C-0.85510619 11.24329772 -3.45987077 11.19667385 -7 11 C-7 11.66 -7 12.32 -7 13 C-3.535 12.505 -3.535 12.505 0 12 C0.33 13.32 0.66 14.64 1 16 C-1.8221083 17.91903365 -3.12901932 17.99110212 -6.625 17.75 C-10 17 -10 17 -12 15 C-12.77200992 10.43077852 -12.59362988 6.94980781 -10.125 3 C-6.75401552 -0.17269128 -4.5855066 -0.37432707 0 0 Z M-4 4 C-4.99 5.485 -4.99 5.485 -6 7 C-4.68 6.67 -3.36 6.34 -2 6 C-2.66 5.34 -3.32 4.68 -4 4 Z " fill="#0B4599" transform="translate(270,96)"/>
<path d="M0 0 C1.12535156 0.00580078 1.12535156 0.00580078 2.2734375 0.01171875 C3.02367187 0.00785156 3.77390625 0.00398438 4.546875 0 C10.14682697 0.01010822 10.14682697 0.01010822 11.2734375 1.13671875 C11.40625 2.94921875 11.40625 2.94921875 11.3984375 5.13671875 C11.40230469 6.21953125 11.40230469 6.21953125 11.40625 7.32421875 C11.2734375 9.13671875 11.2734375 9.13671875 10.2734375 10.13671875 C7.5961237 10.23653089 4.95039575 10.2755175 2.2734375 10.26171875 C1.14808594 10.26751953 1.14808594 10.26751953 0 10.2734375 C-5.59995197 10.26332928 -5.59995197 10.26332928 -6.7265625 9.13671875 C-6.859375 7.32421875 -6.859375 7.32421875 -6.8515625 5.13671875 C-6.85414062 4.41484375 -6.85671875 3.69296875 -6.859375 2.94921875 C-6.5604958 -1.12960324 -3.36531291 0.00607457 0 0 Z " fill="#014AA9" transform="translate(23.7265625,29.86328125)"/>
<path d="M0 0 C-0.33 1.65 -0.66 3.3 -1 5 C2.63 5 6.26 5 10 5 C10 9.95 10 14.9 10 20 C9.67 20 9.34 20 9 20 C8.95101563 19.38511719 8.90203125 18.77023438 8.8515625 18.13671875 C8.77679688 17.32847656 8.70203125 16.52023438 8.625 15.6875 C8.55539062 14.88699219 8.48578125 14.08648437 8.4140625 13.26171875 C8.10435574 10.72775559 8.10435574 10.72775559 6 8 C4.02252878 7.63702064 4.02252878 7.63702064 1.875 7.8125 C0.59625 7.874375 -0.6825 7.93625 -2 8 C-3.21759951 16.16241449 -3.21759951 16.16241449 -1 24 C-0.34 24.66 0.32 25.32 1 26 C-1.4375 25.625 -1.4375 25.625 -4 25 C-5.44207941 22.11584117 -5.09394887 19.58278472 -5.0625 16.375 C-5.05347656 15.18648437 -5.04445313 13.99796875 -5.03515625 12.7734375 C-5.02355469 11.85820313 -5.01195312 10.94296875 -5 10 C-7.64 10.33 -10.28 10.66 -13 11 C-12.72301826 7.02992844 -12.23315777 5.27610788 -9.625 2.1875 C-6.11695226 -0.73587312 -4.27095854 -1.32546989 0 0 Z " fill="#0647A2" transform="translate(296,44)"/>
<path d="M0 0 C0.33 1.32 0.66 2.64 1 4 C2.32 4 3.64 4 5 4 C6.17402193 11.33763707 6.09377123 18.58165418 6 26 C6.99 26 7.98 26 9 26 C9 27.32 9 28.64 9 30 C9.99 30 10.98 30 12 30 C12 27.69 12 25.38 12 23 C12.66 23 13.32 23 14 23 C14.33 22.34 14.66 21.68 15 21 C15 21.66 15 22.32 15 23 C17.97 23 20.94 23 24 23 C24 25.64 24 28.28 24 31 C18.75157984 32.74947339 13.16229145 32.85590703 8 30.8125 C5.10739746 28.19107895 4.12456812 25.73254142 3.84277344 21.81323242 C3.80333743 19.26834603 3.82566237 16.73218311 3.875 14.1875 C3.88402344 13.30384766 3.89304687 12.42019531 3.90234375 11.50976562 C3.92580363 9.33972641 3.96167135 7.16982753 4 5 C2.68 5 1.36 5 0 5 C0 3.35 0 1.7 0 0 Z M9 25 C11 26 11 26 11 26 Z " fill="#044AA9" transform="translate(319,46)"/>
<path d="M0 0 C0.0544207 2.68777802 0.09387266 5.37443212 0.125 8.0625 C0.14175781 8.81466797 0.15851563 9.56683594 0.17578125 10.34179688 C0.21865121 15.29327709 -0.41600625 19.30414451 -2 24 C-2.99 24 -3.98 24 -5 24 C-5 22.68 -5 21.36 -5 20 C-5.99 20 -6.98 20 -8 20 C-8 14.06 -8 8.12 -8 2 C-1 0 -1 0 0 0 Z " fill="#0249AD" transform="translate(333,52)"/>
<path d="M0 0 C7.26 0 14.52 0 22 0 C22 2.31 22 4.62 22 7 C14.74 7 7.48 7 0 7 C0 4.69 0 2.38 0 0 Z " fill="#0A489E" transform="translate(23,10)"/>
<path d="M0 0 C0 0.99 0 1.98 0 3 C0.99 3 1.98 3 3 3 C3 4.65 3 6.3 3 8 C1.35 8 -0.3 8 -2 8 C-2.33 10.64 -2.66 13.28 -3 16 C-2.01 16 -1.02 16 0 16 C-0.33 17.65 -0.66 19.3 -1 21 C-3.31 20.67 -5.62 20.34 -8 20 C-9.45606519 15.47907032 -8.27032841 12.48351204 -7 8 C-7.66 8 -8.32 8 -9 8 C-8.20944111 2.46608774 -5.52734603 0 0 0 Z " fill="#10448F" transform="translate(347,93)"/>
<path d="M0 0 C0.33 0 0.66 0 1 0 C1 2.31 1 4.62 1 7 C0.34 7 -0.32 7 -1 7 C-1 8.32 -1 9.64 -1 11 C-0.01 11 0.98 11 2 11 C2 12.32 2 13.64 2 15 C2.66 15 3.32 15 4 15 C4.66 13.68 5.32 12.36 6 11 C11.28 11 16.56 11 22 11 C22 11.33 22 11.66 22 12 C17.05 12 12.1 12 7 12 C6.690625 13.464375 6.38125 14.92875 6.0625 16.4375 C5.125 20.875 5.125 20.875 4 22 C2.14712498 22.07226502 0.29166122 22.0838122 -1.5625 22.0625 C-2.57441406 22.05347656 -3.58632812 22.04445313 -4.62890625 22.03515625 C-5.41136719 22.02355469 -6.19382813 22.01195313 -7 22 C-4.84071065 14.60606981 -2.4695482 7.29582259 0 0 Z " fill="#0B489C" transform="translate(148,55)"/>
<path d="M0 0 C0.13247351 13.70364816 -0.23070975 27.31762342 -1 41 C-1.99 41.495 -1.99 41.495 -3 42 C-3.9069573 32.9466227 -4.16140498 23.9058663 -4.25 14.8125 C-4.2819043 13.14586304 -4.2819043 13.14586304 -4.31445312 11.44555664 C-4.31896484 10.39746826 -4.32347656 9.34937988 -4.328125 8.26953125 C-4.3374707 7.32698486 -4.34681641 6.38443848 -4.35644531 5.41333008 C-3.99767924 2.98428721 -2.95623866 0 0 0 Z " fill="#0248A6" transform="translate(11,27)"/>
<path d="M0 0 C2.97 0 5.94 0 9 0 C8.69230293 1.81332154 8.37870936 3.62564345 8.0625 5.4375 C7.88847656 6.44683594 7.71445313 7.45617187 7.53515625 8.49609375 C7 11 7 11 6 12 C-2.67906225 12.42683913 -2.67906225 12.42683913 -6 10 C-8.1519437 6.77208445 -8.20086443 5.71599191 -8 2 C-7.01 2.495 -7.01 2.495 -6 3 C-6 3.66 -6 4.32 -6 5 C-3.36095629 6.41377341 -0.92879371 7.37240135 2 8 C2 7.01 2 6.02 2 5 C1.01 4.67 0.02 4.34 -1 4 C-0.67 2.68 -0.34 1.36 0 0 Z " fill="#0649A3" transform="translate(247,101)"/>
<path d="M0 0 C1.65 0.33 3.3 0.66 5 1 C3.68 7.93 2.36 14.86 1 22 C-0.98 22 -2.96 22 -5 22 C-1.78470825 1.78470825 -1.78470825 1.78470825 0 0 Z " fill="#0A4699" transform="translate(148,91)"/>
<path d="M0 0 C1.67542976 0.28604898 3.34385343 0.61781233 5 1 C4.36036805 4.3137291 3.71226081 7.62574335 3.0625 10.9375 C2.88009766 11.88302734 2.69769531 12.82855469 2.50976562 13.80273438 C2.33251953 14.70185547 2.15527344 15.60097656 1.97265625 16.52734375 C1.81031494 17.35999756 1.64797363 18.19265137 1.48071289 19.05053711 C1 21 1 21 0 22 C-1.66617115 22.04063832 -3.33388095 22.042721 -5 22 C-3.15217391 3.15217391 -3.15217391 3.15217391 0 0 Z " fill="#0C4498" transform="translate(131,91)"/>
<path d="M0 0 C0.70125 0.185625 1.4025 0.37125 2.125 0.5625 C5.33888698 1.05156976 7.83560336 0.66231558 11 0 C10.67 1.65 10.34 3.3 10 5 C8.35 5.33 6.7 5.66 5 6 C4.01 9.63 3.02 13.26 2 17 C0.35 17 -1.3 17 -3 17 C-2.36934845 11.2190275 -1.34844868 5.6556294 0 0 Z " fill="#0A4596" transform="translate(370,96)"/>
<path d="M0 0 C0.721875 0.185625 1.44375 0.37125 2.1875 0.5625 C5.12826973 1.01995307 7.14103058 0.73516357 10 0 C10 1.65 10 3.3 10 5 C9.236875 5.12375 8.47375 5.2475 7.6875 5.375 C3.80538177 7.7223273 3.57028381 10.63193166 2.48046875 14.8828125 C2.32191406 15.58148438 2.16335938 16.28015625 2 17 C0.35 17 -1.3 17 -3 17 C-2.54775239 11.08507728 -1.8417395 5.64800112 0 0 Z " fill="#0C4592" transform="translate(311,96)"/>
<path d="M0 0 C1.984375 1.20703125 1.984375 1.20703125 4 3 C4.390625 5.26171875 4.390625 5.26171875 4.25 7.6875 C4.21390625 8.49574219 4.1778125 9.30398437 4.140625 10.13671875 C4.09421875 10.75160156 4.0478125 11.36648437 4 12 C4.66 12 5.32 12 6 12 C6.50757862 13.41396902 7.00574925 14.83131729 7.5 16.25 C7.7784375 17.03890625 8.056875 17.8278125 8.34375 18.640625 C9 21 9 21 9 25 C7.35 24.67 5.7 24.34 4 24 C4 23.01 4 22.02 4 21 C3.34 21 2.68 21 2 21 C-0.62096065 14.11997829 -0.18170362 7.27823961 0 0 Z " fill="#0249AB" transform="translate(59,62)"/>
<path d="M0 0 C1 3 1 3 0 6 C0.99 6.66 1.98 7.32 3 8 C0.03 11.3 -2.94 14.6 -6 18 C-6.66 17.01 -7.32 16.02 -8 15 C-7.67 14.34 -7.34 13.68 -7 13 C-6.34 13.33 -5.68 13.66 -5 14 C-4.67 13.34 -4.34 12.68 -4 12 C-3.67 11.34 -3.34 10.68 -3 10 C-3.66 10.33 -4.32 10.66 -5 11 C-6.48100811 11.08963847 -7.96599424 11.11757925 -9.44970703 11.11352539 C-10.37051056 11.11344986 -11.29131409 11.11337433 -12.24002075 11.11329651 C-13.73382767 11.10555458 -13.73382767 11.10555458 -15.2578125 11.09765625 C-16.27600067 11.0962413 -17.29418884 11.09482635 -18.3432312 11.09336853 C-21.60385035 11.087759 -24.86440151 11.07520488 -28.125 11.0625 C-30.33203026 11.05748623 -32.53906159 11.05292311 -34.74609375 11.04882812 C-40.16408581 11.03778648 -45.58203805 11.02103905 -51 11 C-51.33 10.34 -51.66 9.68 -52 9 C-50.70900391 9.04713135 -49.41800781 9.0942627 -48.08789062 9.14282227 C-43.27271244 9.30640381 -38.45777649 9.40928276 -33.640625 9.49438477 C-31.56077709 9.53949341 -29.4812122 9.6008009 -27.40234375 9.67895508 C-15.61266101 10.57414648 -15.61266101 10.57414648 -4.80859375 6.95654297 C-2.81890069 4.71813828 -1.31900104 2.68064799 0 0 Z " fill="#0F4695" transform="translate(66,104)"/>
<path d="M0 0 C2.64 0 5.28 0 8 0 C7.67 0.66 7.34 1.32 7 2 C4.03 1.505 4.03 1.505 1 1 C1 10.9 1 20.8 1 31 C1.99 30.34 2.98 29.68 4 29 C4 28.34 4 27.68 4 27 C3.34 27 2.68 27 2 27 C2 25.68 2 24.36 2 23 C4.475 23.99 4.475 23.99 7 25 C7 26.65 7 28.3 7 30 C8.94090826 28.05909174 8.39919435 24.52706098 8.5625 21.9375 C8.64628906 20.64714844 8.73007813 19.35679688 8.81640625 18.02734375 C8.87699219 17.02832031 8.93757812 16.02929688 9 15 C9.33 15 9.66 15 10 15 C10 21.27 10 27.54 10 34 C6.7 34 3.4 34 0 34 C0 22.78 0 11.56 0 0 Z " fill="#0D4999" transform="translate(188,43)"/>
<path d="M0 0 C0.99 0.33 1.98 0.66 3 1 C5.30964003 1.09570082 7.6219728 1.13073916 9.93359375 1.1328125 C10.60793961 1.13376923 11.28228546 1.13472595 11.97706604 1.13571167 C13.40178521 1.13639141 14.8265075 1.1345515 16.2512207 1.13037109 C18.42601527 1.12502821 20.60060254 1.13031869 22.77539062 1.13671875 C24.16145879 1.13605777 25.54752682 1.13477619 26.93359375 1.1328125 C28.19228271 1.13168457 29.45097168 1.13055664 30.74780273 1.12939453 C33.38168089 1.02460094 35.50544435 0.78709621 38 0 C37.6875 1.9375 37.6875 1.9375 37 4 C36.01 4.33 35.02 4.66 34 5 C34.495 6.98 34.495 6.98 35 9 C34.01 9.33 33.02 9.66 32 10 C30.5 8.6875 30.5 8.6875 29 7 C29 6.01 29 5.02 29 4 C19.43 4 9.86 4 0 4 C0 2.68 0 1.36 0 0 Z " fill="#0249AC" transform="translate(108,19)"/>
<path d="M0 0 C0.33 0 0.66 0 1 0 C1 14.85 1 29.7 1 45 C0.67 45 0.34 45 0 45 C-0.33 40.38 -0.66 35.76 -1 31 C-1.66 31 -2.32 31 -3 31 C-3 23.41 -3 15.82 -3 8 C-2.67 8 -2.34 8 -2 8 C-1.67 12.29 -1.34 16.58 -1 21 C-0.67 14.07 -0.34 7.14 0 0 Z " fill="#054E8D" transform="translate(10,47)"/>
<path d="M0 0 C0.66 1.32 1.32 2.64 2 4 C3.65 4 5.3 4 7 4 C6.85890014 6.10448938 6.71195825 8.2085877 6.5625 10.3125 C6.48128906 11.48425781 6.40007812 12.65601562 6.31640625 13.86328125 C6 17 6 17 5 20 C5 19.34 5 18.68 5 18 C4.34 18 3.68 18 3 18 C2.92652344 17.06027344 2.92652344 17.06027344 2.8515625 16.1015625 C2.77679688 15.28429687 2.70203125 14.46703125 2.625 13.625 C2.52058594 12.40683594 2.52058594 12.40683594 2.4140625 11.1640625 C2.17107412 8.79665809 2.17107412 8.79665809 0 7 C-0.16489368 17.04821399 -0.16489368 17.04821399 1 27 C-2.77272159 23.22727841 -3.14646882 18.19365419 -3.3125 13.0625 C-3.22971964 8.14835672 -1.98663641 4.46993193 0 0 Z " fill="#0D4896" transform="translate(60,56)"/>
<path d="M0 0 C0.33 0 0.66 0 1 0 C1.29254918 4.97333608 1.16504232 8.0436971 -2 12 C-4.5660206 13.94663632 -5.81116974 14.00770736 -9.0625 13.875 C-12 13 -12 13 -13.9375 11.1875 C-15 9 -15 9 -14.6875 6.75 C-14.3471875 5.88375 -14.3471875 5.88375 -14 5 C-13.67 6.65 -13.34 8.3 -13 10 C-12.34 10 -11.68 10 -11 10 C-10.67 7.36 -10.34 4.72 -10 2 C-9.34 2.33 -8.68 2.66 -8 3 C-8.33 4.98 -8.66 6.96 -9 9 C-8.01 9 -7.02 9 -6 9 C-5.34 6.69 -4.68 4.38 -4 2 C-3.34 2 -2.68 2 -2 2 C-2.66666667 4.66666667 -3.33333333 7.33333333 -4 10 C-3.34 10 -2.68 10 -2 10 C-1.34 6.7 -0.68 3.4 0 0 Z " fill="#0D4492" transform="translate(365,100)"/>
<path d="M0 0 C-2.33214148 1.20628008 -4.49642139 2.1654738 -7 3 C-9.52003857 6.44847383 -9.15901 9.86573995 -9 14 C-8.34 13.01 -7.68 12.02 -7 11 C-6.67 11.33 -6.34 11.66 -6 12 C-3.66702567 12.04092937 -1.33294775 12.04241723 1 12 C1 13.65 1 15.3 1 17 C-7.01626233 18.57584644 -7.01626233 18.57584644 -10.5625 16.5 C-12.55388789 13.03671671 -12.54415849 10.94514908 -12 7 C-8.82320487 1.08458838 -6.57892088 -0.17780867 0 0 Z " fill="#0C4491" transform="translate(225,96)"/>
<path d="M0 0 C2.23688247 1.64038047 2.8436287 2.81466598 3.875 5.375 C4.0703125 7.734375 4.0703125 7.734375 4 10.125 C3.98195313 10.92421875 3.96390625 11.7234375 3.9453125 12.546875 C3.92210937 13.15015625 3.89890625 13.7534375 3.875 14.375 C2.885 13.715 1.895 13.055 0.875 12.375 C0.6875 9.75 0.6875 9.75 0.875 7.375 C-1.105 6.715 -3.085 6.055 -5.125 5.375 C-5.455 7.355 -5.785 9.335 -6.125 11.375 C-6.455 11.375 -6.785 11.375 -7.125 11.375 C-7.351875 10.42625 -7.57875 9.4775 -7.8125 8.5 C-8.81583714 5.18176612 -8.81583714 5.18176612 -11.75 4 C-12.53375 3.79375 -13.3175 3.5875 -14.125 3.375 C-14.125 3.045 -14.125 2.715 -14.125 2.375 C-11.485 2.705 -8.845 3.035 -6.125 3.375 C-6.125 2.715 -6.125 2.055 -6.125 1.375 C-2.73486547 -0.8043722 -2.73486547 -0.8043722 0 0 Z " fill="#0C489A" transform="translate(273.125,54.625)"/>
<path d="M0 0 C0 0.99 0 1.98 0 3 C-0.99 3.495 -0.99 3.495 -2 4 C-2.33 4.99 -2.66 5.98 -3 7 C-1.865625 6.814375 -0.73125 6.62875 0.4375 6.4375 C2.2009375 6.2209375 2.2009375 6.2209375 4 6 C5 7 5 7 5.0625 9.5625 C5.041875 10.366875 5.02125 11.17125 5 12 C4.34 12 3.68 12 3 12 C3 13.26457031 3 14.52914062 3 15.83203125 C3 21.5546875 3 27.27734375 3 33 C-0.84912758 28.2012189 -0.34850223 23.52899131 -0.1875 17.6875 C-0.16719727 16.29047852 -0.16719727 16.29047852 -0.14648438 14.86523438 C-0.11126882 12.57622354 -0.06202099 10.28841542 0 8 C-1.32 8 -2.64 8 -4 8 C-4 6.02 -4 4.04 -4 2 C-2.68 1.34 -1.36 0.68 0 0 Z " fill="#0F4994" transform="translate(217,43)"/>
<path d="M0 0 C1.65322266 0.01740234 1.65322266 0.01740234 3.33984375 0.03515625 C4.99693359 0.04869141 4.99693359 0.04869141 6.6875 0.0625 C7.54214844 0.07410156 8.39679688 0.08570312 9.27734375 0.09765625 C10.30738668 2.88623625 11.32665372 5.67795913 12.33984375 8.47265625 C12.63439453 9.26671875 12.92894531 10.06078125 13.23242188 10.87890625 C13.50634766 11.63945313 13.78027344 12.4 14.0625 13.18359375 C14.319104 13.88532715 14.57570801 14.58706055 14.84008789 15.31005859 C15.27734375 17.09765625 15.27734375 17.09765625 14.27734375 19.09765625 C12.95734375 18.43765625 11.63734375 17.77765625 10.27734375 17.09765625 C10.27734375 16.43765625 10.27734375 15.77765625 10.27734375 15.09765625 C9.28734375 14.43765625 8.29734375 13.77765625 7.27734375 13.09765625 C7.60734375 12.10765625 7.93734375 11.11765625 8.27734375 10.09765625 C8.3447524 8.53647197 8.36248831 6.97263105 8.33984375 5.41015625 C8.31921875 3.98703125 8.29859375 2.56390625 8.27734375 1.09765625 C4.97734375 1.42765625 1.67734375 1.75765625 -1.72265625 2.09765625 C-2.05265625 3.74765625 -2.38265625 5.39765625 -2.72265625 7.09765625 C-3.38265625 6.76765625 -4.04265625 6.43765625 -4.72265625 6.09765625 C-3.65171431 0.13097971 -3.65171431 0.13097971 0 0 Z " fill="#0A479B" transform="translate(159.72265625,31.90234375)"/>
<path d="M0 0 C3.96 0 7.92 0 12 0 C12 2.64 12 5.28 12 8 C9.03 8 6.06 8 3 8 C3 6.35 3 4.7 3 3 C2.01 2.67 1.02 2.34 0 2 C0 1.34 0 0.68 0 0 Z " fill="#0D4699" transform="translate(331,43)"/>
<path d="M0 0 C2.0625 0.4375 2.0625 0.4375 4 1 C3.01 1 2.02 1 1 1 C1 2.98 1 4.96 1 7 C1.99 6.67 2.98 6.34 4 6 C3.34 9.63 2.68 13.26 2 17 C0.02 17 -1.96 17 -4 17 C-3.52555245 14.35323911 -3.04568672 11.70766636 -2.5625 9.0625 C-2.42779297 8.30775391 -2.29308594 7.55300781 -2.15429688 6.77539062 C-1.11328125 1.11328125 -1.11328125 1.11328125 0 0 Z " fill="#0C4595" transform="translate(156,96)"/>
<path d="M0 0 C0.66 0 1.32 0 2 0 C2 2.64 2 5.28 2 8 C2.66 8.33 3.32 8.66 4 9 C3.67 9.99 3.34 10.98 3 12 C4.65 12 6.3 12 8 12 C8.33 13.32 8.66 14.64 9 16 C5.7 15.34 2.4 14.68 -1 14 C-1.02685938 11.85423363 -1.04633088 9.70837355 -1.0625 7.5625 C-1.07410156 6.36753906 -1.08570313 5.17257813 -1.09765625 3.94140625 C-1 1 -1 1 0 0 Z " fill="#0349A7" transform="translate(200,99)"/>
<path d="M0 0 C1.12535156 0.00580078 1.12535156 0.00580078 2.2734375 0.01171875 C3.02367187 0.00785156 3.77390625 0.00398438 4.546875 0 C10.14682697 0.01010822 10.14682697 0.01010822 11.2734375 1.13671875 C11.40625 2.94921875 11.40625 2.94921875 11.3984375 5.13671875 C11.40230469 6.21953125 11.40230469 6.21953125 11.40625 7.32421875 C11.2734375 9.13671875 11.2734375 9.13671875 10.2734375 10.13671875 C7.5961237 10.23653089 4.95039575 10.2755175 2.2734375 10.26171875 C1.14808594 10.26751953 1.14808594 10.26751953 0 10.2734375 C-5.59995197 10.26332928 -5.59995197 10.26332928 -6.7265625 9.13671875 C-6.859375 7.32421875 -6.859375 7.32421875 -6.8515625 5.13671875 C-6.85414062 4.41484375 -6.85671875 3.69296875 -6.859375 2.94921875 C-6.5604958 -1.12960324 -3.36531291 0.00607457 0 0 Z M-4.7265625 2.13671875 C-4.89322917 5.13671875 -4.89322917 5.13671875 -4.7265625 8.13671875 C-3.58954653 9.50204424 -3.58954653 9.50204424 -0.56640625 9.234375 C0.72136719 9.22277344 2.00914063 9.21117187 3.3359375 9.19921875 C4.62628906 9.19019531 5.91664062 9.18117188 7.24609375 9.171875 C8.24511719 9.16027344 9.24414062 9.14867187 10.2734375 9.13671875 C10.31585473 6.803771 10.31436687 4.46969308 10.2734375 2.13671875 C9.16603172 0.80461656 9.16603172 0.80461656 6.3671875 1.00390625 C5.18125 1.00648437 3.9953125 1.0090625 2.7734375 1.01171875 C1.5875 1.00914063 0.4015625 1.0065625 -0.8203125 1.00390625 C-3.61915672 0.80461656 -3.61915672 0.80461656 -4.7265625 2.13671875 Z " fill="#194C8C" transform="translate(23.7265625,29.86328125)"/>
<path d="M0 0 C0.66 0 1.32 0 2 0 C2 2.97 2 5.94 2 9 C4.97 9.495 4.97 9.495 8 10 C8 10.66 8 11.32 8 12 C6.02 12.33 4.04 12.66 2 13 C2 12.34 2 11.68 2 11 C1.0409375 11.2784375 1.0409375 11.2784375 0.0625 11.5625 C-0.618125 11.706875 -1.29875 11.85125 -2 12 C-3 11 -3 11 -3.09765625 9.15234375 C-3.06510417 7.1015625 -3.03255208 5.05078125 -3 3 C-2.01 2.67 -1.02 2.34 0 2 C0 1.34 0 0.68 0 0 Z " fill="#0745A0" transform="translate(295,100)"/>
<path d="M0 0 C0.33 1.32 0.66 2.64 1 4 C2.32 4 3.64 4 5 4 C6.17402193 11.33763707 6.09377123 18.58165418 6 26 C6.99 26 7.98 26 9 26 C9.33 27.65 9.66 29.3 10 31 C7.45401134 30.06647083 6.23788057 29.416291 4.875 27.03125 C3.63242198 22.72660472 3.78864477 18.64143729 3.875 14.1875 C3.88402344 13.30384766 3.89304687 12.42019531 3.90234375 11.50976562 C3.92580363 9.33972641 3.96167135 7.16982753 4 5 C2.68 5 1.36 5 0 5 C0 3.35 0 1.7 0 0 Z M9 25 C11 26 11 26 11 26 Z " fill="#114287" transform="translate(319,46)"/>
<path d="M0 0 C0.33 0 0.66 0 1 0 C1.02505615 0.56509277 1.0501123 1.13018555 1.07592773 1.71240234 C1.19179956 4.26683742 1.31456537 6.8208955 1.4375 9.375 C1.47681641 10.26445313 1.51613281 11.15390625 1.55664062 12.0703125 C1.59853516 12.92109375 1.64042969 13.771875 1.68359375 14.6484375 C1.72025146 15.43395996 1.75690918 16.21948242 1.79467773 17.02880859 C1.890891 19.07523496 1.890891 19.07523496 3 21 C2.01 21.33 1.02 21.66 0 22 C0.33 22.99 0.66 23.98 1 25 C-2 24 -2 24 -3.1875 22.3125 C-4.19313465 19.45030907 -4.13689641 17.01172092 -4 14 C-3.34 14 -2.68 14 -2 14 C-2 14.99 -2 15.98 -2 17 C-1.34 17 -0.68 17 0 17 C0 11.39 0 5.78 0 0 Z " fill="#0D4793" transform="translate(11,92)"/>
<path d="M0 0 C2.375 -0.125 2.375 -0.125 5 0 C5.66 0.66 6.32 1.32 7 2 C7.66 1.34 8.32 0.68 9 0 C11.625 -0.125 11.625 -0.125 14 0 C12.68 0.33 11.36 0.66 10 1 C10 2.32 10 3.64 10 5 C9.01 5.495 9.01 5.495 8 6 C7.08719862 8.57437581 7.08719862 8.57437581 6.375 11.5625 C6.11460937 12.57441406 5.85421875 13.58632812 5.5859375 14.62890625 C5.39257812 15.41136719 5.19921875 16.19382812 5 17 C4.67 17 4.34 17 4 17 C4.02320313 16.15695313 4.04640625 15.31390625 4.0703125 14.4453125 C4.08835938 13.34960938 4.10640625 12.25390625 4.125 11.125 C4.14820313 10.03445312 4.17140625 8.94390625 4.1953125 7.8203125 C4.30060534 4.8628949 4.30060534 4.8628949 2 3 C2.66 3 3.32 3 4 3 C4 2.34 4 1.68 4 1 C2.68 0.67 1.36 0.34 0 0 Z " fill="#0D4393" transform="translate(162,96)"/>
<path d="M0 0 C0.66 0 1.32 0 2 0 C2.33 2.31 2.66 4.62 3 7 C3.61875 6.690625 4.2375 6.38125 4.875 6.0625 C6.25 5.375 7.625 4.6875 9 4 C9.66 2.68 10.32 1.36 11 0 C11.66 2.97 12.32 5.94 13 9 C9.37 9 5.74 9 2 9 C1.34 6.03 0.68 3.06 0 0 Z " fill="#0C469A" transform="translate(171,68)"/>
<path d="M0 0 C1.65 0.33 3.3 0.66 5 1 C3.68 7.93 2.36 14.86 1 22 C0.34 22 -0.32 22 -1 22 C-0.40546697 8.3667426 -0.40546697 8.3667426 3 2 C2.34 2 1.68 2 1 2 C1 2.99 1 3.98 1 5 C0.34 5 -0.32 5 -1 5 C-0.67 3.35 -0.34 1.7 0 0 Z " fill="#11438D" transform="translate(148,91)"/>
<path d="M0 0 C2.01635978 3.02453967 3.03246502 5.63075348 4.1875 9.0625 C4.55230469 10.12597656 4.91710937 11.18945312 5.29296875 12.28515625 C6 15 6 15 5 17 C4.67 16.01 4.34 15.02 4 14 C1.36 14.33 -1.28 14.66 -4 15 C-3.34 14.34 -2.68 13.68 -2 13 C-1.3200561 10.940249 -1.3200561 10.940249 -0.875 8.625 C-0.70742187 7.85414062 -0.53984375 7.08328125 -0.3671875 6.2890625 C0.10558985 3.72813596 0.10558985 3.72813596 0 0 Z " fill="#08479D" transform="translate(175,51)"/>
<path d="M0 0 C1.66611905 -0.042721 3.33382885 -0.04063832 5 0 C5.33 0.33 5.66 0.66 6 1 C5.91062197 2.52519276 5.75462854 4.04681929 5.5625 5.5625 C5.46066406 6.38878906 5.35882813 7.21507812 5.25390625 8.06640625 C5.17011719 8.70449219 5.08632812 9.34257813 5 10 C4.07767578 10.14695312 4.07767578 10.14695312 3.13671875 10.296875 C-1.99409305 11.13291046 -1.99409305 11.13291046 -6.0625 14.125 C-6.371875 14.74375 -6.68125 15.3625 -7 16 C-6.8125 13.6875 -6.8125 13.6875 -6 11 C-3.5625 9.375 -3.5625 9.375 -1 8 C-0.34 7.01 0.32 6.02 1 5 C1.66 5 2.32 5 3 5 C3.33 3.68 3.66 2.36 4 1 C2.68 0.67 1.36 0.34 0 0 Z " fill="#124697" transform="translate(205,42)"/>
<path d="M0 0 C-0.33 0.66 -0.66 1.32 -1 2 C-3.31 2 -5.62 2 -8 2 C-8 2.66 -8 3.32 -8 4 C-10.64 4 -13.28 4 -16 4 C-16.33 4.66 -16.66 5.32 -17 6 C-18.32 5.67 -19.64 5.34 -21 5 C-20.01 4.67 -19.02 4.34 -18 4 C-18 3.34 -18 2.68 -18 2 C-11.84629161 0.176679 -6.40353322 -0.2361959 0 0 Z " fill="#0349AB" transform="translate(90,31)"/>
<path d="M0 0 C0.625 1.8125 0.625 1.8125 1 4 C-1 7 -1 7 -2.9453125 7.51171875 C-3.66460937 7.56972656 -4.38390625 7.62773438 -5.125 7.6875 C-7.043125 7.8421875 -7.043125 7.8421875 -9 8 C-9 8.66 -9 9.32 -9 10 C-5.535 9.505 -5.535 9.505 -2 9 C-1.67 10.32 -1.34 11.64 -1 13 C-1.33 12.34 -1.66 11.68 -2 11 C-4.64 11 -7.28 11 -10 11 C-9.67 8.36 -9.34 5.72 -9 3 C-8.01 3.33 -7.02 3.66 -6 4 C-6 4.66 -6 5.32 -6 6 C-4.68 6 -3.36 6 -2 6 C-1.855625 5.195625 -1.71125 4.39125 -1.5625 3.5625 C-1 1 -1 1 0 0 Z " fill="#12438C" transform="translate(272,99)"/>
<path d="M0 0 C3.36720387 1.39332574 4.9859524 2.9789286 7 6 C8.32 5.67 9.64 5.34 11 5 C11.33 6.32 11.66 7.64 12 9 C12.99 9 13.98 9 15 9 C13.60667426 12.36720387 12.0210714 13.9859524 9 16 C9.66 13.36 10.32 10.72 11 8 C9.35 8.33 7.7 8.66 6 9 C5.566875 8.236875 5.13375 7.47375 4.6875 6.6875 C3.25870276 4.4120081 1.92127211 2.82978296 0 1 C0 0.67 0 0.34 0 0 Z " fill="#114894" transform="translate(103,46)"/>
<path d="M0 0 C2.31 0 4.62 0 7 0 C7 1.98 7 3.96 7 6 C3.94736336 6.98120464 2.05263664 6.98120464 -1 6 C-0.67 4.02 -0.34 2.04 0 0 Z " fill="#0C4799" transform="translate(326,36)"/>
<path d="M0 0 C1.32 0 2.64 0 4 0 C4 2.64 4 5.28 4 8 C0.98509443 9.00496852 -1.04181692 9.10335303 -4.1875 9.0625 C-5.53908203 9.04896484 -5.53908203 9.04896484 -6.91796875 9.03515625 C-7.60503906 9.02355469 -8.29210937 9.01195313 -9 9 C-7.68 8.34 -6.36 7.68 -5 7 C-5.33 6.34 -5.66 5.68 -6 5 C-3.36 5.33 -0.72 5.66 2 6 C2 4.35 2 2.7 2 1 C1.34 0.67 0.68 0.34 0 0 Z " fill="#0E448C" transform="translate(339,69)"/>
<path d="M0 0 C0.33 0 0.66 0 1 0 C1.33 2.64 1.66 5.28 2 8 C5.3 8 8.6 8 12 8 C12 8.99 12 9.98 12 11 C4.875 12.30625 4.875 12.30625 1.5 11.125 C-0.9149202 7.70386305 -0.30596215 4.05399842 0 0 Z " fill="#0E458F" transform="translate(258,102)"/>
<path d="M0 0 C-2.88406243 3.40843742 -4.3708265 4.86591384 -8.8125 5.8125 C-10.3903125 5.9053125 -10.3903125 5.9053125 -12 6 C-9.05707332 -0.56499028 -7.24604106 -1.50389531 0 0 Z " fill="#0A479E" transform="translate(275,71)"/>
<path d="M0 0 C0 2.97 0 5.94 0 9 C-1.65 9.33 -3.3 9.66 -5 10 C-5 7.33333333 -5 4.66666667 -5 2 C-2 0 -2 0 0 0 Z " fill="#054AA9" transform="translate(71,101)"/>
<path d="M0 0 C1.32 0 2.64 0 4 0 C4 2.97 4 5.94 4 9 C3.01 9 2.02 9 1 9 C1 8.01 1 7.02 1 6 C0.01 5.67 -0.98 5.34 -2 5 C-1.125 1.125 -1.125 1.125 0 0 Z " fill="#054AA8" transform="translate(117,92)"/>
<path d="M0 0 C0 0.33 0 0.66 0 1 C-1.65 1.33 -3.3 1.66 -5 2 C-2.69 2 -0.38 2 2 2 C2 3.65 2 5.3 2 7 C0.54364629 7.22174933 -0.91522956 7.42698698 -2.375 7.625 C-3.18710937 7.74101563 -3.99921875 7.85703125 -4.8359375 7.9765625 C-5.55007813 7.98429687 -6.26421875 7.99203125 -7 8 C-7.66 7.34 -8.32 6.68 -9 6 C-8.01 5.67 -7.02 5.34 -6 5 C-6 5.66 -6 6.32 -6 7 C-4.02 6.67 -2.04 6.34 0 6 C0 5.34 0 4.68 0 4 C-1.98 4 -3.96 4 -6 4 C-6.33 2.68 -6.66 1.36 -7 0 C-3.98968256 -0.93423645 -3.13349732 -1.04449911 0 0 Z " fill="#0F3B85" transform="translate(303,106)"/>
<path d="M0 0 C2.97 0 5.94 0 9 0 C8.34 3.63 7.68 7.26 7 11 C6.01 11.33 5.02 11.66 4 12 C4 11.34 4 10.68 4 10 C4.66 10 5.32 10 6 10 C6 7.36 6 4.72 6 2 C4.35 2 2.7 2 1 2 C1 2.66 1 3.32 1 4 C0.34 4 -0.32 4 -1 4 C-0.67 2.68 -0.34 1.36 0 0 Z " fill="#0E4897" transform="translate(247,101)"/>
<path d="M0 0 C0.99 0.33 1.98 0.66 3 1 C2.67 1.99 2.34 2.98 2 4 C0.68 4 -0.64 4 -2 4 C-1.773125 4.598125 -1.54625 5.19625 -1.3125 5.8125 C-1.209375 6.534375 -1.10625 7.25625 -1 8 C-2.375 9.75 -2.375 9.75 -4 11 C-4.33 11 -4.66 11 -5 11 C-5.36783439 4.50159236 -5.36783439 4.50159236 -3.625 2.125 C-2 1 -2 1 0 0 Z " fill="#0646A6" transform="translate(326,98)"/>
<path d="M0 0 C1.9375 1.5 1.9375 1.5 3 3 C2.01 4.485 2.01 4.485 1 6 C-1.97 5.505 -1.97 5.505 -5 5 C-5 4.67 -5 4.34 -5 4 C-3.02 4 -1.04 4 1 4 C1 3.34 1 2.68 1 2 C-3.97093824 2.41153737 -8.44508386 2.79600832 -13 5 C-9.47410891 -0.20488684 -6.15147053 -0.43939075 0 0 Z " fill="#113F89" transform="translate(254,91)"/>
<path d="M0 0 C0.33 0 0.66 0 1 0 C1.13277344 1.02480469 1.26554687 2.04960938 1.40234375 3.10546875 C1.58064088 4.4661574 1.75903123 5.82683385 1.9375 7.1875 C2.02451172 7.86103516 2.11152344 8.53457031 2.20117188 9.22851562 C2.67825477 12.85081166 3.23012035 16.42803585 4 20 C3.01 20.33 2.02 20.66 1 21 C-0.17426264 18.65147472 -0.11508173 17.26225935 -0.09765625 14.6484375 C-0.09443359 13.79765625 -0.09121094 12.946875 -0.08789062 12.0703125 C-0.07951172 11.18085937 -0.07113281 10.29140625 -0.0625 9.375 C-0.05798828 8.4778125 -0.05347656 7.580625 -0.04882812 6.65625 C-0.03702591 4.43743352 -0.02056155 2.21874982 0 0 Z " fill="#11499A" transform="translate(51,64)"/>
<path d="M0 0 C0.99 0.33 1.98 0.66 3 1 C2.67 1.99 2.34 2.98 2 4 C1.34 4 0.68 4 0 4 C0.226875 4.556875 0.45375 5.11375 0.6875 5.6875 C1.12692663 8.93925707 -0.12695226 10.40654928 -2 13 C-2.33 13 -2.66 13 -3 13 C-3.27429625 7.60550707 -3.36055646 4.48074195 0 0 Z " fill="#0348AD" transform="translate(218,98)"/>
<path d="M0 0 C0.99 0.33 1.98 0.66 3 1 C2.34 4.3 1.68 7.6 1 11 C0.01 10.67 -0.98 10.34 -2 10 C-2 7.36 -2 4.72 -2 2 C-1.34 2 -0.68 2 0 2 C0 1.34 0 0.68 0 0 Z " fill="#0348AD" transform="translate(261,100)"/>
<path d="M0 0 C1.09570312 0.00902344 2.19140625 0.01804687 3.3203125 0.02734375 C4.16335937 0.03894531 5.00640625 0.05054687 5.875 0.0625 C5.545 1.0525 5.215 2.0425 4.875 3.0625 C4.875 2.4025 4.875 1.7425 4.875 1.0625 C0.56659287 2.13960178 -2.76076723 3.10197516 -6.125 6.0625 C-6.125 5.0725 -6.125 4.0825 -6.125 3.0625 C-7.115 3.3925 -8.105 3.7225 -9.125 4.0625 C-8.795 3.0725 -8.465 2.0825 -8.125 1.0625 C-5.36047967 -0.31976016 -3.0788637 -0.03275387 0 0 Z " fill="#0D4690" transform="translate(208.125,95.9375)"/>
<path d="M0 0 C0.99 0 1.98 0 3 0 C2.52060632 4.71403788 2.03165952 8.66579301 0 13 C-0.66 13 -1.32 13 -2 13 C-1.48041715 8.62065881 -0.94324258 4.31196609 0 0 Z " fill="#0448AB" transform="translate(131,93)"/>
<path d="M0 0 C1.31611677 0.95336021 2.62778961 1.91285774 3.9375 2.875 C4.66839844 3.40867187 5.39929688 3.94234375 6.15234375 4.4921875 C8 6 8 6 9 8 C7.35 7.67 5.7 7.34 4 7 C4.66 8.32 5.32 9.64 6 11 C2.83884224 9.63016497 2.0072908 9.0109362 0 6 C0.33 5.01 0.66 4.02 1 3 C0.67 2.01 0.34 1.02 0 0 Z " fill="#0D4792" transform="translate(59,91)"/>
<path d="M0 0 C0.33 0 0.66 0 1 0 C1 3.3 1 6.6 1 10 C7.16709155 9.03633744 7.16709155 9.03633744 13 7 C13 7.99 13 8.98 13 10 C7.09796901 11.86379926 3.77604692 12.35757017 -2 10 C-2.33 9.34 -2.66 8.68 -3 8 C-2.34 8 -1.68 8 -1 8 C-0.67 5.36 -0.34 2.72 0 0 Z " fill="#0D4C97" transform="translate(253,59)"/>
<path d="M0 0 C0 4.62 0 9.24 0 14 C-0.33 14 -0.66 14 -1 14 C-1.04898437 13.38511719 -1.09796875 12.77023438 -1.1484375 12.13671875 C-1.22320312 11.32847656 -1.29796875 10.52023438 -1.375 9.6875 C-1.44460938 8.88699219 -1.51421875 8.08648437 -1.5859375 7.26171875 C-1.89564426 4.72775559 -1.89564426 4.72775559 -4 2 C-5.97747122 1.63702064 -5.97747122 1.63702064 -8.125 1.8125 C-9.40375 1.874375 -10.6825 1.93625 -12 2 C-12 1.34 -12 0.68 -12 0 C-10.56359829 -0.19573608 -9.12580496 -0.38127816 -7.6875 -0.5625 C-6.88699219 -0.66691406 -6.08648437 -0.77132812 -5.26171875 -0.87890625 C-3 -1 -3 -1 0 0 Z " fill="#0F448D" transform="translate(306,50)"/>
<path d="M0 0 C0.99 1.485 0.99 1.485 2 3 C4.37087016 3.32664364 4.37087016 3.32664364 7 3.125 C11.82887701 2.9144385 11.82887701 2.9144385 14 4 C14.33 3.34 14.66 2.68 15 2 C15 2.66 15 3.32 15 4 C16.32 4 17.64 4 19 4 C19.33 2.68 19.66 1.36 20 0 C20 1.65 20 3.3 20 5 C16.85463232 5.19594676 13.70869386 5.3803401 10.5625 5.5625 C9.66466797 5.61857422 8.76683594 5.67464844 7.84179688 5.73242188 C6.98779297 5.78076172 6.13378906 5.82910156 5.25390625 5.87890625 C4.46314697 5.9260376 3.6723877 5.97316895 2.85766602 6.02172852 C1 6 1 6 0 5 C-0.04063832 3.33382885 -0.042721 1.66611905 0 0 Z " fill="#08469E" transform="translate(24,11)"/>
<path d="M0 0 C0 1.98 0 3.96 0 6 C0.66 6.33 1.32 6.66 2 7 C-0.31 7.33 -2.62 7.66 -5 8 C-5.25 5.6875 -5.25 5.6875 -5 3 C-1.79310345 0 -1.79310345 0 0 0 Z " fill="#0B47A2" transform="translate(325,42)"/>
<path d="M0 0 C0.99 0.33 1.98 0.66 3 1 C3 2.65 3 4.3 3 6 C1.68 6.33 0.36 6.66 -1 7 C-1 7.66 -1 8.32 -1 9 C-1.66 9 -2.32 9 -3 9 C-3.26218749 5.85375007 -3.24754367 4.38162983 -1.5 1.6875 C-1.005 1.130625 -0.51 0.57375 0 0 Z " fill="#0449A8" transform="translate(134,29)"/>
<path d="M0 0 C-0.55704728 3.23087421 -1.33187535 5.02361137 -4 7 C-5.32 7 -6.64 7 -8 7 C-6.53112033 2.34854772 -6.53112033 2.34854772 -4 0.6875 C-2 0 -2 0 0 0 Z " fill="#0549A4" transform="translate(156,7)"/>
<path d="M0 0 C1.65322266 0.01740234 1.65322266 0.01740234 3.33984375 0.03515625 C4.99693359 0.04869141 4.99693359 0.04869141 6.6875 0.0625 C7.54214844 0.07410156 8.39679688 0.08570312 9.27734375 0.09765625 C9.60734375 1.74765625 9.93734375 3.39765625 10.27734375 5.09765625 C9.61734375 3.77765625 8.95734375 2.45765625 8.27734375 1.09765625 C4.97734375 1.42765625 1.67734375 1.75765625 -1.72265625 2.09765625 C-2.05265625 3.74765625 -2.38265625 5.39765625 -2.72265625 7.09765625 C-3.38265625 6.76765625 -4.04265625 6.43765625 -4.72265625 6.09765625 C-3.65171431 0.13097971 -3.65171431 0.13097971 0 0 Z " fill="#0E438D" transform="translate(159.72265625,31.90234375)"/>
<path d="M0 0 C0.99 0.33 1.98 0.66 3 1 C3.33 3.31 3.66 5.62 4 8 C3.34 8 2.68 8 2 8 C1.67 8.99 1.34 9.98 1 11 C-0.20272819 8.59454362 -0.10071472 7.05003047 -0.0625 4.375 C-0.05347656 3.55773437 -0.04445313 2.74046875 -0.03515625 1.8984375 C-0.02355469 1.27195312 -0.01195312 0.64546875 0 0 Z " fill="#044AA8" transform="translate(340,98)"/>
<path d="M0 0 C0 0.99 0 1.98 0 3 C-0.99 3 -1.98 3 -3 3 C-3 3.99 -3 4.98 -3 6 C-3.99 6 -4.98 6 -6 6 C-6.66 4.35 -7.32 2.7 -8 1 C-5.29120665 -0.35439668 -2.99066732 -0.06501451 0 0 Z " fill="#0848A9" transform="translate(213,97)"/>
<path d="M0 0 C0.77985158 2.67377686 1.12252092 5.23818797 1.375 8 C1.76595986 11.43531939 2.55031389 13.4438058 5 16 C2.5625 15.625 2.5625 15.625 0 15 C-1.37252731 12.25494537 -1.13229255 9.99672588 -1.125 6.9375 C-1.12757813 5.85339844 -1.13015625 4.76929688 -1.1328125 3.65234375 C-1 1 -1 1 0 0 Z " fill="#10458A" transform="translate(292,54)"/>
<path d="M0 0 C1.60517097 0.08733576 3.20921662 0.19552224 4.8125 0.3125 C6.15248047 0.39951172 6.15248047 0.39951172 7.51953125 0.48828125 C10 1 10 1 13 4 C8.545 4.495 8.545 4.495 4 5 C4 3.68 4 2.36 4 1 C2.68 0.67 1.36 0.34 0 0 Z " fill="#0E4799" transform="translate(296,42)"/>
<path d="M0 0 C0.33 0 0.66 0 1 0 C1.22786458 1.98567708 1.45572917 3.97135417 1.68359375 5.95703125 C1.97170735 8.19396393 1.97170735 8.19396393 3 11 C5.10584438 11.80563638 5.10584438 11.80563638 7.5625 12.1875 C8.38878906 12.34605469 9.21507812 12.50460938 10.06640625 12.66796875 C10.70449219 12.77753906 11.34257812 12.88710937 12 13 C12 13.33 12 13.66 12 14 C7.79034186 14.41271158 5.64412341 14.42484735 2.0625 12.0625 C-0.70477383 7.95351764 -0.47138774 4.80815498 0 0 Z " fill="#0F458E" transform="translate(238,100)"/>
<path d="M0 0 C1.65 0.33 3.3 0.66 5 1 C4.67 2.65 4.34 4.3 4 6 C3.67 4.68 3.34 3.36 3 2 C2.01 2 1.02 2 0 2 C-0.12375 3.258125 -0.2475 4.51625 -0.375 5.8125 C-0.69868059 9.10325263 -1.06604999 10.09907498 -3 13 C-2.88490339 11.58249437 -2.75746342 10.16598831 -2.625 8.75 C-2.55539063 7.96109375 -2.48578125 7.1721875 -2.4140625 6.359375 C-1.98492887 3.914123 -1.21399362 2.15163097 0 0 Z " fill="#164485" transform="translate(131,91)"/>
<path d="M0 0 C0.9075 0.165 1.815 0.33 2.75 0.5 C6.11087503 1.10137146 6.11087503 1.10137146 10 1 C10 3.64 10 6.28 10 9 C9.01 8.67 8.02 8.34 7 8 C7.33 6.35 7.66 4.7 8 3 C5.69 3 3.38 3 1 3 C0.67 2.01 0.34 1.02 0 0 Z " fill="#124487" transform="translate(227,68)"/>
<path d="M0 0 C0.99 0.33 1.98 0.66 3 1 C3.17942163 4.94727588 3.09350689 7.5980513 1 11 C0.34 11 -0.32 11 -1 11 C-0.47731534 8.23723823 0.10869587 5.6739124 1 3 C0.34 3 -0.32 3 -1 3 C-0.67 2.01 -0.34 1.02 0 0 Z " fill="#0547AC" transform="translate(362,99)"/>
<path d="M0 0 C0.66 0 1.32 0 2 0 C1.125 4.75 1.125 4.75 0 7 C-0.039992 8.99960012 -0.04346799 11.00047242 0 13 C-0.99 12.34 -1.98 11.68 -3 11 C-2.67 8.36 -2.34 5.72 -2 3 C-1.34 3 -0.68 3 0 3 C0 2.01 0 1.02 0 0 Z " fill="#0248AB" transform="translate(149,93)"/>
<path d="M0 0 C0.33 2.64 0.66 5.28 1 8 C-1 6.625 -1 6.625 -3 5 C-3 4.34 -3 3.68 -3 3 C-4.65 3.33 -6.3 3.66 -8 4 C-7.67 3.01 -7.34 2.02 -7 1 C-4.53721199 -0.231394 -2.7204945 -0.07159196 0 0 Z " fill="#0A3D8E" transform="translate(331,96)"/>
<path d="M0 0 C0.66 0 1.32 0 2 0 C6.06153846 6.4 6.06153846 6.4 5.75 9.4375 C5.5025 9.953125 5.255 10.46875 5 11 C4.67 10.01 4.34 9.02 4 8 C1.99983534 6.79117904 1.99983534 6.79117904 0 6 C0 4.02 0 2.04 0 0 Z " fill="#0C4598" transform="translate(309,46)"/>
<path d="M0 0 C1 4 1 4 0 7 C0.99 7.33 1.98 7.66 3 8 C1.68 9.32 0.36 10.64 -1 12 C-1.66 11.67 -2.32 11.34 -3 11 C-2.01 7.37 -1.02 3.74 0 0 Z " fill="#0C4895" transform="translate(153,41)"/>
<path d="M0 0 C0.66 0 1.32 0 2 0 C3.31223496 3.93670488 2.24296256 6.12488144 1 10 C-1 8 -1 8 -1.1875 4.4375 C-1 1 -1 1 0 0 Z " fill="#0846AA" transform="translate(312,99)"/>
<path d="M0 0 C1.875 0.1875 1.875 0.1875 4 1 C5.3125 3.4375 5.3125 3.4375 6 6 C5.67 6.66 5.34 7.32 5 8 C3.0625 7.375 3.0625 7.375 1 6 C0.25 2.875 0.25 2.875 0 0 Z " fill="#0648A2" transform="translate(55,89)"/>
<path d="M0 0 C2.31 0.33 4.62 0.66 7 1 C6.04270084 2.12588014 5.08412105 3.2506715 4.125 4.375 C3.59132813 5.00148438 3.05765625 5.62796875 2.5078125 6.2734375 C1.38567993 7.55836651 0.20628025 8.79371975 -1 10 C-0.42415568 7.61435923 0.22227595 5.33317216 1 3 C0.67 2.01 0.34 1.02 0 0 Z " fill="#0E4697" transform="translate(80,90)"/>
<path d="M0 0 C0 3.33333333 0 6.66666667 0 10 C-0.99 10 -1.98 10 -3 10 C-3.91058531 6.92677456 -4.08886184 4.19902639 -4 1 C-2.68 0.67 -1.36 0.34 0 0 Z " fill="#044CAE" transform="translate(118,45)"/>
<path d="M0 0 C-0.52268466 2.76276177 -1.10869587 5.3260876 -2 8 C-3.32 8 -4.64 8 -6 8 C-5.62403791 5.21788056 -5.32681541 3.4120716 -3.5625 1.1875 C-2 0 -2 0 0 0 Z " fill="#0248A1" transform="translate(272,97)"/>
<path d="M0 0 C1.32 1.65 2.64 3.3 4 5 C3.01 5.495 3.01 5.495 2 6 C1.34 5.67 0.68 5.34 0 5 C0.33 6.65 0.66 8.3 1 10 C-0.37562854 8.71034824 -1.70766393 7.37310707 -3 6 C-3 5.34 -3 4.68 -3 4 C-2.34 3.67 -1.68 3.34 -1 3 C-0.67 2.01 -0.34 1.02 0 0 Z " fill="#0A5394" transform="translate(55,84)"/>
<path d="M0 0 C5.625 -0.25 5.625 -0.25 9 2 C9 2.66 9 3.32 9 4 C8.01 4 7.02 4 6 4 C5.34 4.66 4.68 5.32 4 6 C3.34 5.34 2.68 4.68 2 4 C2.66 3.01 3.32 2.02 4 1 C2.68 0.67 1.36 0.34 0 0 Z " fill="#0B438D" transform="translate(356,96)"/>
<path d="M0 0 C0.99 0 1.98 0 3 0 C3 0.99 3 1.98 3 3 C3.99 3 4.98 3 6 3 C6 3.99 6 4.98 6 6 C4.35 6 2.7 6 1 6 C0.67 4.02 0.34 2.04 0 0 Z " fill="#0349A9" transform="translate(343,94)"/>
<path d="M0 0 C0.33 0.99 0.66 1.98 1 3 C1.99 3 2.98 3 4 3 C3.67 4.32 3.34 5.64 3 7 C3 6.34 3 5.68 3 5 C2.01 5.33 1.02 5.66 0 6 C-1.21869929 8.50447516 -1.21869929 8.50447516 -2 11 C-3 9 -3 9 -2.44140625 6.8359375 C-2.15136719 6.02382812 -1.86132812 5.21171875 -1.5625 4.375 C-1.27503906 3.55773437 -0.98757812 2.74046875 -0.69140625 1.8984375 C-0.46324219 1.27195312 -0.23507813 0.64546875 0 0 Z " fill="#144390" transform="translate(64,9)"/>
<path d="M0 0 C1.65 0 3.3 0 5 0 C5.33 1.32 5.66 2.64 6 4 C5.01 4.66 4.02 5.32 3 6 C1.5 4.6875 1.5 4.6875 0 3 C0 2.01 0 1.02 0 0 Z " fill="#074AA7" transform="translate(49,124)"/>
<path d="M0 0 C0.99 0.33 1.98 0.66 3 1 C3 3.33333333 3 5.66666667 3 8 C1.68 8 0.36 8 -1 8 C-0.67 5.36 -0.34 2.72 0 0 Z " fill="#034AAE" transform="translate(74,94)"/>
<path d="M0 0 C0 0.66 0 1.32 0 2 C-0.99 2 -1.98 2 -3 2 C-3.33 3.32 -3.66 4.64 -4 6 C-5.65 5.67 -7.3 5.34 -9 5 C-8.67 4.01 -8.34 3.02 -8 2 C-7.01 2 -6.02 2 -5 2 C-2 0 -2 0 0 0 Z " fill="#104C94" transform="translate(204,43)"/>
<path d="M0 0 C2.64 0 5.28 0 8 0 C8 0.99 8 1.98 8 3 C5.69 3 3.38 3 1 3 C0.67 2.01 0.34 1.02 0 0 Z " fill="#08479B" transform="translate(262,110)"/>
<path d="M0 0 C0.66 0.33 1.32 0.66 2 1 C1.67 1.99 1.34 2.98 1 4 C0.01 4 -0.98 4 -2 4 C-2.33 4.99 -2.66 5.98 -3 7 C-5.0625 8.1875 -5.0625 8.1875 -7 9 C-5.44499019 5.18315774 -2.96404505 2.80804268 0 0 Z " fill="#0F4999" transform="translate(78,50)"/>
<path d="M0 0 C0 0.66 0 1.32 0 2 C-0.99 2 -1.98 2 -3 2 C-3 3.32 -3 4.64 -3 6 C-4.65 5.67 -6.3 5.34 -8 5 C-8 4.34 -8 3.68 -8 3 C-2.25 0 -2.25 0 0 0 Z " fill="#0C4AA0" transform="translate(72,33)"/>
<path d="M0 0 C0.66 0 1.32 0 2 0 C1.6875 3.375 1.6875 3.375 1 7 C0.01 7.66 -0.98 8.32 -2 9 C-2 7.02 -2 5.04 -2 3 C-1.34 2.67 -0.68 2.34 0 2 C0 1.34 0 0.68 0 0 Z " fill="#0348B0" transform="translate(295,100)"/>
<path d="M0 0 C-1.92576115 2.43929746 -3.80090595 4.80090595 -6 7 C-6.33 5.68 -6.66 4.36 -7 3 C-6.34 3 -5.68 3 -5 3 C-5.33 2.01 -5.66 1.02 -6 0 C-3 -1 -3 -1 0 0 Z " fill="#0D4692" transform="translate(62,46)"/>
<path d="M0 0 C2.64 0 5.28 0 8 0 C8 1.65 8 3.3 8 5 C5.07120629 4.37240135 2.63904371 3.41377341 0 2 C0 1.34 0 0.68 0 0 Z " fill="#0D428B" transform="translate(218,108)"/>
<path d="M0 0 C0.99 0.99 1.98 1.98 3 3 C3.66 2.67 4.32 2.34 5 2 C5 3.32 5 4.64 5 6 C3.02 6 1.04 6 -1 6 C-0.67 4.02 -0.34 2.04 0 0 Z " fill="#0F4395" transform="translate(171,107)"/>
<path d="M0 0 C0.99 0.495 0.99 0.495 2 1 C2 1.66 2 2.32 2 3 C2.66 3 3.32 3 4 3 C4 4.65 4 6.3 4 8 C3.34 8 2.68 8 2 8 C-0.1519437 4.77208445 -0.20086443 3.71599191 0 0 Z " fill="#0449AD" transform="translate(239,103)"/>
<path d="M0 0 C0.66 0.33 1.32 0.66 2 1 C2 2.98 2 4.96 2 7 C0.02 7.99 0.02 7.99 -2 9 C-1.34 6.03 -0.68 3.06 0 0 Z " fill="#10438E" transform="translate(305,97)"/>
<path d="M0 0 C0.99 0 1.98 0 3 0 C3 0.99 3 1.98 3 3 C2.34 3 1.68 3 1 3 C1 3.99 1 4.98 1 6 C0.01 5.67 -0.98 5.34 -2 5 C-1.125 1.125 -1.125 1.125 0 0 Z " fill="#0648AA" transform="translate(192,97)"/>
<path d="M0 0 C1.32 0 2.64 0 4 0 C3.67 1.65 3.34 3.3 3 5 C2.01 5 1.02 5 0 5 C0 3.35 0 1.7 0 0 Z " fill="#0345AF" transform="translate(172,97)"/>
<path d="M0 0 C0.66 0.33 1.32 0.66 2 1 C2 2.65 2 4.3 2 6 C-0.31 6 -2.62 6 -5 6 C-4.360625 5.38125 -3.72125 4.7625 -3.0625 4.125 C-0.96116416 2.17402388 -0.96116416 2.17402388 0 0 Z " fill="#03B96C" transform="translate(49,85)"/>
<path d="M0 0 C0.66 0 1.32 0 2 0 C2.33 0.99 2.66 1.98 3 3 C3.99 3.33 4.98 3.66 6 4 C6.33 5.65 6.66 7.3 7 9 C1.21538462 4.56923077 1.21538462 4.56923077 0.125 1.6875 C0.08375 1.130625 0.0425 0.57375 0 0 Z " fill="#114792" transform="translate(61,83)"/>
<path d="M0 0 C2.25 0.25 2.25 0.25 4 1 C1.6875 3.0625 1.6875 3.0625 -1 5 C-1.99 4.67 -2.98 4.34 -4 4 C-2.25 1.9375 -2.25 1.9375 0 0 Z " fill="#0F4691" transform="translate(308,72)"/>
<path d="M0 0 C0.99 0.33 1.98 0.66 3 1 C1.515 6.445 1.515 6.445 0 12 C-0.33 12 -0.66 12 -1 12 C-0.67 8.04 -0.34 4.08 0 0 Z " fill="#104895" transform="translate(53,52)"/>
<path d="M0 0 C0.66 0 1.32 0 2 0 C2 1.65 2 3.3 2 5 C-0.64 4.34 -3.28 3.68 -6 3 C-6 2.67 -6 2.34 -6 2 C-4.02 2 -2.04 2 0 2 C0 1.34 0 0.68 0 0 Z " fill="#074CAA" transform="translate(330,108)"/>
<path d="M0 0 C0 1.98 0 3.96 0 6 C-1.32 6 -2.64 6 -4 6 C-4 4.68 -4 3.36 -4 2 C-1 0 -1 0 0 0 Z " fill="#0349A9" transform="translate(373,102)"/>
<path d="M0 0 C0 0.99 0 1.98 0 3 C-0.99 3.495 -0.99 3.495 -2 4 C-2.33 4.99 -2.66 5.98 -3 7 C-1.35 7 0.3 7 2 7 C2 7.33 2 7.66 2 8 C0.02 8 -1.96 8 -4 8 C-4 6.02 -4 4.04 -4 2 C-2.68 1.34 -1.36 0.68 0 0 Z " fill="#154E96" transform="translate(217,43)"/>
<path d="M0 0 C0 0.99 0 1.98 0 3 C-2.5 5.1875 -2.5 5.1875 -5 7 C-5.33 5.68 -5.66 4.36 -6 3 C-5.34 3 -4.68 3 -4 3 C-3.67 2.34 -3.34 1.68 -3 1 C-2.01 0.67 -1.02 0.34 0 0 Z " fill="#0F4896" transform="translate(95,80)"/>
<path d="M0 0 C0.99 0.66 1.98 1.32 3 2 C0.03 4.475 0.03 4.475 -3 7 C-2.625 4.0625 -2.625 4.0625 -2 1 C-1.34 0.67 -0.68 0.34 0 0 Z " fill="#094999" transform="translate(106,65)"/>
<path d="M0 0 C2.31 0 4.62 0 7 0 C7 0.99 7 1.98 7 3 C4.625 3.1875 4.625 3.1875 2 3 C1.34 2.01 0.68 1.02 0 0 Z " fill="#0747B1" transform="translate(255,51)"/>
<path d="M0 0 C1.39195915 4.17587745 -0.17676781 6.13474776 -2 10 C-2.33 10 -2.66 10 -3 10 C-3.33 7.69 -3.66 5.38 -4 3 C-3.01 2.67 -2.02 2.34 -1 2 C-0.67 1.34 -0.34 0.68 0 0 Z " fill="#14AB88" transform="translate(52,48)"/>
<path d="M0 0 C-3.51187196 2.40814077 -5.72656908 3.36629408 -10 3 C-4.375 -1.3125 -4.375 -1.3125 0 0 Z " fill="#13489A" transform="translate(81,42)"/>
<path d="M0 0 C2.31 0 4.62 0 7 0 C7 0.66 7 1.32 7 2 C5.02 2.99 5.02 2.99 3 4 C1.97895449 3.02149805 0.9793879 2.02019573 0 1 C0 0.67 0 0.34 0 0 Z " fill="#0647AB" transform="translate(199,117)"/>
<path d="M0 0 C1.32 0 2.64 0 4 0 C4 0.66 4 1.32 4 2 C3.34 2 2.68 2 2 2 C2 2.66 2 3.32 2 4 C1.34 4 0.68 4 0 4 C-0.33 4.66 -0.66 5.32 -1 6 C-1.042721 4.33388095 -1.04063832 2.66617115 -1 1 C-0.67 0.67 -0.34 0.34 0 0 Z " fill="#0F3F86" transform="translate(277,96)"/>
</svg>
